{
  "source": "C:\\Users\\Peter\\Desktop\\stuff\\MIUN\\quantitative_research\\video_compression\\videos\\UVG\\HoneyBee_1920x1080_120fps_420_8bit_YUV.y4m",
  "output": "C:\\Users\\Peter\\Desktop\\stuff\\MIUN\\quantitative_research\\video_compression\\compressed_videos\\UVG\\hevc\\4\\HoneyBee_1920x1080_120fps_420_8bit_YUV_hevc.mp4",
  "codec": "hevc",
  "ok": "[yuv4mpegpipe @ 000001587ba66740] Stream #0: not enough frames to estimate rate; consider increasing probesize\nInput #0, yuv4mpegpipe, from 'C:\\Users\\Peter\\Desktop\\stuff\\MIUN\\quantitative_research\\video_compression\\videos\\UVG\\HoneyBee_1920x1080_120fps_420_8bit_YUV.y4m':\n  Duration: 00:00:05.00, start: 0.000000, bitrate: 2985989 kb/s\n  Stream #0:0: Video: rawvideo (I420 / 0x30323449), yuv420p(progressive), 1920x1080, 120 fps, 120 tbr, 120 tbn\n[out#0/mp4 @ 000001587ba69a80] Codec AVOption b:a (set bitrate (in bits/s)) has not been used for any stream. The most likely reason is either wrong type (e.g. a video option with no video streams) or that it is a private option of some decoder which was not actually used for any stream.\nStream mapping:\n  Stream #0:0 -> #0:0 (rawvideo (native) -> hevc (libx265))\nPress [q] to stop, [?] for help\n[libx265 @ 000001587ba6cac0] Unknown option: \"aq-mode.\nx265 [info]: HEVC encoder version 4.1+190-8f11c33ac\nx265 [info]: build info [Windows][GCC 15.1.0][64 bit] 10bit\nx265 [info]: using cpu capabilities: MMX2 SSE2Fast LZCNT SSSE3 SSE4.2 AVX FMA3 BMI2 AVX2\nx265 [info]: Main 10 profile, Level-5 (Main tier)\nx265 [info]: Thread pool created using 12 threads\nx265 [info]: Slices                              : 1\nx265 [info]: frame threads / pool features       : 3 / wpp(17 rows)\nx265 [info]: Coding QT: max CU size, min CU size : 64 / 8\nx265 [info]: Residual QT: max TU size, max depth : 32 / 1 inter / 1 intra\nx265 [info]: ME / range / subpel / merge         : star / 57 / 3 / 3\nx265 [info]: Keyframe min / max / scenecut / bias  : 25 / 250 / 40 / 5.00 \nx265 [info]: Lookahead / bframes / badapt        : 25 / 4 / 2\nx265 [info]: b-pyramid / weightp / weightb       : 1 / 1 / 0\nx265 [info]: References / ref-limit  cu / depth  : 4 / on / on\nx265 [info]: AQ: mode / str / qg-size / cu-tree  : 2 / 1.0 / 32 / 1\nx265 [info]: Rate Control / qCompress            : ABR-4000 kbps / 0.60\nx265 [info]: VBV/HRD buffer / max-rate / init    : 4000 / 4000 / 0.750\nx265 [info]: tools: rect limit-modes rd=4 psy-rd=2.00 rdoq=2 psy-rdoq=1.00\nx265 [info]: tools: rskip mode=1 signhide tmvp strong-intra-smoothing lslices=4\nx265 [info]: tools: deblock sao dhdr10-info\nOutput #0, mp4, to 'C:\\Users\\Peter\\Desktop\\stuff\\MIUN\\quantitative_research\\video_compression\\compressed_videos\\UVG\\hevc\\4\\HoneyBee_1920x1080_120fps_420_8bit_YUV_hevc.mp4':\n  Metadata:\n    encoder         : Lavf62.3.100\n  Stream #0:0: Video: hevc (hev1 / 0x31766568), yuv420p10le(tv, progressive), 1920x1080, q=2-31, 4000 kb/s, 120 fps, 15360 tbn\n    Metadata:\n      encoder         : Lavc62.11.100 libx265\n    Side data:\n      cpb: bitrate max/min/avg: 4000000/0/4000000 buffer size: 4000000 vbv_delay: N/A\nframe=    0 fps=0.0 q=0.0 size=       0KiB time=N/A bitrate=N/A speed=N/A elapsed=0:00:00.52    \nframe=    0 fps=0.0 q=0.0 size=       0KiB time=N/A bitrate=N/A speed=N/A elapsed=0:00:01.05    \nframe=    0 fps=0.0 q=0.0 size=       0KiB time=N/A bitrate=N/A speed=N/A elapsed=0:00:01.56    \nframe=    0 fps=0.0 q=0.0 size=       0KiB time=N/A bitrate=N/A speed=N/A elapsed=0:00:02.08    \nframe=    0 fps=0.0 q=0.0 size=       0KiB time=N/A bitrate=N/A speed=N/A elapsed=0:00:02.62    \nframe=    0 fps=0.0 q=0.0 size=       0KiB time=N/A bitrate=N/A speed=N/A elapsed=0:00:03.15    \nframe=    0 fps=0.0 q=0.0 size=       0KiB time=N/A bitrate=N/A speed=N/A elapsed=0:00:03.67    \nframe=    0 fps=0.0 q=0.0 size=       0KiB time=N/A bitrate=N/A speed=N/A elapsed=0:00:04.18    \nframe=    2 fps=0.4 q=48.7 size=       0KiB time=00:00:00.00 bitrate=N/A speed=   0x elapsed=0:00:04.73    \nframe=    4 fps=0.8 q=51.0 size=       0KiB time=00:00:00.01 bitrate=  21.1kbits/s speed=0.00318x elapsed=0:00:05.24    \nframe=    4 fps=0.7 q=51.0 size=       0KiB time=00:00:00.01 bitrate=  21.1kbits/s speed=0.00289x elapsed=0:00:05.76    \nframe=    4 fps=0.6 q=51.0 size=       0KiB time=00:00:00.01 bitrate=  21.1kbits/s speed=0.00266x elapsed=0:00:06.27    \nframe=    6 fps=0.9 q=47.0 size=       0KiB time=00:00:00.03 bitrate=  10.6kbits/s speed=0.00491x elapsed=0:00:06.79    \nframe=    6 fps=0.8 q=47.0 size=       0KiB time=00:00:00.03 bitrate=  10.6kbits/s speed=0.00456x elapsed=0:00:07.31    \nframe=    8 fps=1.0 q=40.8 size=       0KiB time=00:00:00.05 bitrate=   7.0kbits/s speed=0.00639x elapsed=0:00:07.82    \nframe=    9 fps=1.1 q=40.6 size=       0KiB time=00:00:00.05 bitrate=   6.0kbits/s speed=0.00699x elapsed=0:00:08.34    \nframe=   11 fps=1.2 q=40.5 size=       0KiB time=00:00:00.06 bitrate=   5.3kbits/s speed=0.00753x elapsed=0:00:08.85    \nframe=   11 fps=1.2 q=40.5 size=       0KiB time=00:00:00.07 bitrate=   4.7kbits/s speed=0.00799x elapsed=0:00:09.38    \nframe=   12 fps=1.2 q=33.7 size=       0KiB time=00:00:00.08 bitrate=   4.2kbits/s speed=0.00839x elapsed=0:00:09.92    \nframe=   13 fps=1.2 q=40.8 size=       0KiB time=00:00:00.09 bitrate=   3.8kbits/s speed=0.00876x elapsed=0:00:10.46    \nframe=   14 fps=1.3 q=39.6 size=       0KiB time=00:00:00.10 bitrate=   3.5kbits/s speed=0.00909x elapsed=0:00:11.00    \nframe=   14 fps=1.2 q=39.6 size=       0KiB time=00:00:00.10 bitrate=   3.5kbits/s speed=0.00867x elapsed=0:00:11.53    \nframe=   14 fps=1.2 q=39.6 size=       0KiB time=00:00:00.10 bitrate=   3.5kbits/s speed=0.00827x elapsed=0:00:12.09    \nframe=   14 fps=1.1 q=39.6 size=       0KiB time=00:00:00.10 bitrate=   3.5kbits/s speed=0.0079x elapsed=0:00:12.65    \nframe=   14 fps=1.1 q=39.6 size=       0KiB time=00:00:00.10 bitrate=   3.5kbits/s speed=0.00758x elapsed=0:00:13.19    \nframe=   14 fps=1.0 q=39.6 size=       0KiB time=00:00:00.10 bitrate=   3.5kbits/s speed=0.00728x elapsed=0:00:13.72    \nframe=   15 fps=1.1 q=39.8 size=       0KiB time=00:00:00.10 bitrate=   3.2kbits/s speed=0.00759x elapsed=0:00:14.28    \nframe=   15 fps=1.0 q=39.8 size=       0KiB time=00:00:00.10 bitrate=   3.2kbits/s speed=0.00731x elapsed=0:00:14.82    \nframe=   16 fps=1.0 q=39.7 size=       0KiB time=00:00:00.11 bitrate=   3.0kbits/s speed=0.00759x elapsed=0:00:15.36    \nframe=   17 fps=1.1 q=31.7 size=       0KiB time=00:00:00.12 bitrate=   2.8kbits/s speed=0.00787x elapsed=0:00:15.88    \nframe=   17 fps=1.0 q=31.7 size=       0KiB time=00:00:00.12 bitrate=   2.8kbits/s speed=0.0076x elapsed=0:00:16.44    \nframe=   17 fps=1.0 q=31.7 size=       0KiB time=00:00:00.12 bitrate=   2.8kbits/s speed=0.00737x elapsed=0:00:16.96    \nframe=   18 fps=1.0 q=38.8 size=       0KiB time=00:00:00.13 bitrate=   2.6kbits/s speed=0.00761x elapsed=0:00:17.53    \nframe=   19 fps=1.1 q=38.7 size=       0KiB time=00:00:00.14 bitrate=   2.5kbits/s speed=0.00783x elapsed=0:00:18.08    \nframe=   19 fps=1.0 q=38.7 size=       0KiB time=00:00:00.14 bitrate=   2.5kbits/s speed=0.0076x elapsed=0:00:18.63    \nframe=   19 fps=1.0 q=38.7 size=       0KiB time=00:00:00.14 bitrate=   2.5kbits/s speed=0.00739x elapsed=0:00:19.16    \nframe=   20 fps=1.0 q=37.7 size=       0KiB time=00:00:00.15 bitrate=   2.3kbits/s speed=0.00761x elapsed=0:00:19.71    \nframe=   20 fps=1.0 q=37.7 size=       0KiB time=00:00:00.15 bitrate=   2.3kbits/s speed=0.00741x elapsed=0:00:20.23    \nframe=   20 fps=1.0 q=37.7 size=       0KiB time=00:00:00.15 bitrate=   2.3kbits/s speed=0.00722x elapsed=0:00:20.77    \nframe=   20 fps=0.9 q=37.7 size=       0KiB time=00:00:00.15 bitrate=   2.3kbits/s speed=0.00703x elapsed=0:00:21.32    \nframe=   21 fps=1.0 q=37.7 size=       0KiB time=00:00:00.15 bitrate=   2.2kbits/s speed=0.00725x elapsed=0:00:21.84    \nframe=   21 fps=0.9 q=37.7 size=       0KiB time=00:00:00.15 bitrate=   2.2kbits/s speed=0.00707x elapsed=0:00:22.39    \nframe=   21 fps=0.9 q=37.7 size=       0KiB time=00:00:00.15 bitrate=   2.2kbits/s speed=0.00691x elapsed=0:00:22.92    \nframe=   21 fps=0.9 q=37.7 size=       0KiB time=00:00:00.15 bitrate=   2.2kbits/s speed=0.00675x elapsed=0:00:23.45    \nframe=   22 fps=0.9 q=30.3 size=       0KiB time=00:00:00.16 bitrate=   2.1kbits/s speed=0.00694x elapsed=0:00:24.01    \nframe=   23 fps=0.9 q=37.7 size=       0KiB time=00:00:00.17 bitrate=   2.0kbits/s speed=0.00713x elapsed=0:00:24.54    \nframe=   24 fps=1.0 q=37.7 size=       0KiB time=00:00:00.18 bitrate=   1.9kbits/s speed=0.00731x elapsed=0:00:25.07    \nframe=   24 fps=0.9 q=37.7 size=       0KiB time=00:00:00.18 bitrate=   1.9kbits/s speed=0.00716x elapsed=0:00:25.59    \nframe=   25 fps=1.0 q=36.9 size=       0KiB time=00:00:00.19 bitrate=   1.8kbits/s speed=0.00733x elapsed=0:00:26.13    \nframe=   26 fps=1.0 q=35.8 size=       0KiB time=00:00:00.20 bitrate=   1.8kbits/s speed=0.0075x elapsed=0:00:26.65    \nframe=   28 fps=1.0 q=35.7 size=       0KiB time=00:00:00.21 bitrate=   1.6kbits/s speed=0.00797x elapsed=0:00:27.19    \nframe=   29 fps=1.0 q=35.8 size=       0KiB time=00:00:00.22 bitrate=   1.6kbits/s speed=0.00811x elapsed=0:00:27.75    \nframe=   29 fps=1.0 q=35.8 size=       0KiB time=00:00:00.22 bitrate=   1.6kbits/s speed=0.00796x elapsed=0:00:28.27    \nframe=   30 fps=1.0 q=34.6 size=       0KiB time=00:00:00.23 bitrate=   1.5kbits/s speed=0.0081x elapsed=0:00:28.79    \nframe=   31 fps=1.1 q=34.6 size=       0KiB time=00:00:00.24 bitrate=   1.5kbits/s speed=0.00825x elapsed=0:00:29.30    \nframe=   32 fps=1.1 q=27.9 size=       0KiB time=00:00:00.25 bitrate=   1.4kbits/s speed=0.00838x elapsed=0:00:29.83    \nframe=   34 fps=1.1 q=34.8 size=       0KiB time=00:00:00.26 bitrate=   1.3kbits/s speed=0.00878x elapsed=0:00:30.36    \nframe=   35 fps=1.1 q=34.7 size=       0KiB time=00:00:00.27 bitrate=   1.3kbits/s speed=0.0089x elapsed=0:00:30.90    \nframe=   36 fps=1.1 q=34.7 size=       0KiB time=00:00:00.28 bitrate=   1.2kbits/s speed=0.00901x elapsed=0:00:31.43    \nframe=   37 fps=1.2 q=27.7 size=       0KiB time=00:00:00.28 bitrate=   1.2kbits/s speed=0.00886x elapsed=0:00:31.99    \nframe=   38 fps=1.2 q=34.6 size=       0KiB time=00:00:00.30 bitrate=   1.2kbits/s speed=0.00922x elapsed=0:00:32.54    \nframe=   39 fps=1.2 q=34.7 size=       0KiB time=00:00:00.30 bitrate=   1.1kbits/s speed=0.00932x elapsed=0:00:33.06    \nframe=   40 fps=1.2 q=32.6 size=       0KiB time=00:00:00.31 bitrate=   1.1kbits/s speed=0.00943x elapsed=0:00:33.59    \nframe=   42 fps=1.2 q=27.0 size=       0KiB time=00:00:00.33 bitrate=   1.1kbits/s speed=0.00977x elapsed=0:00:34.11    \nframe=   43 fps=1.2 q=32.8 size=       0KiB time=00:00:00.34 bitrate=   1.0kbits/s speed=0.00987x elapsed=0:00:34.62    \nframe=   44 fps=1.3 q=32.7 size=       0KiB time=00:00:00.35 bitrate=   1.0kbits/s speed=0.00996x elapsed=0:00:35.14    \nframe=   44 fps=1.2 q=32.7 size=       0KiB time=00:00:00.35 bitrate=   1.0kbits/s speed=0.00982x elapsed=0:00:35.65    \nframe=   45 fps=1.2 q=32.5 size=       0KiB time=00:00:00.35 bitrate=   1.0kbits/s speed=0.00991x elapsed=0:00:36.16    \nframe=   46 fps=1.3 q=32.5 size=       0KiB time=00:00:00.36 bitrate=   1.0kbits/s speed=0.00999x elapsed=0:00:36.70    \nframe=   47 fps=1.3 q=26.1 size=       0KiB time=00:00:00.37 bitrate=   0.9kbits/s speed=0.0101x elapsed=0:00:37.23    \nframe=   49 fps=1.3 q=32.5 size=       0KiB time=00:00:00.39 bitrate=   0.9kbits/s speed=0.0104x elapsed=0:00:37.78    \nframe=   50 fps=1.3 q=31.7 size=       0KiB time=00:00:00.40 bitrate=   0.9kbits/s speed=0.0104x elapsed=0:00:38.30    \nframe=   51 fps=1.3 q=31.5 size=       0KiB time=00:00:00.40 bitrate=   0.9kbits/s speed=0.0105x elapsed=0:00:38.82    \nframe=   52 fps=1.3 q=26.1 size=       0KiB time=00:00:00.41 bitrate=   0.8kbits/s speed=0.0106x elapsed=0:00:39.36    \nframe=   52 fps=1.3 q=26.1 size=       0KiB time=00:00:00.41 bitrate=   0.8kbits/s speed=0.0104x elapsed=0:00:39.90    \nframe=   53 fps=1.3 q=31.7 size=       0KiB time=00:00:00.42 bitrate=   0.8kbits/s speed=0.0105x elapsed=0:00:40.44    \nframe=   54 fps=1.3 q=31.6 size=       0KiB time=00:00:00.43 bitrate=   0.8kbits/s speed=0.0106x elapsed=0:00:40.97    \nframe=   55 fps=1.3 q=29.9 size=       0KiB time=00:00:00.44 bitrate=   0.8kbits/s speed=0.0106x elapsed=0:00:41.51    \nframe=   56 fps=1.3 q=30.1 size=       0KiB time=00:00:00.45 bitrate=   0.8kbits/s speed=0.0107x elapsed=0:00:42.04    \nframe=   56 fps=1.3 q=30.1 size=       0KiB time=00:00:00.45 bitrate=   0.8kbits/s speed=0.0106x elapsed=0:00:42.59    \nframe=   59 fps=1.4 q=30.2 size=       0KiB time=00:00:00.47 bitrate=   0.7kbits/s speed=0.011x elapsed=0:00:43.10    \nframe=   60 fps=1.4 q=30.6 size=       0KiB time=00:00:00.48 bitrate=   0.7kbits/s speed=0.0111x elapsed=0:00:43.62    \nframe=   61 fps=1.4 q=31.4 size=       0KiB time=00:00:00.49 bitrate=   0.7kbits/s speed=0.0111x elapsed=0:00:44.17    \nframe=   63 fps=1.4 q=30.4 size=       0KiB time=00:00:00.50 bitrate=   0.7kbits/s speed=0.0114x elapsed=0:00:44.69    \nframe=   63 fps=1.4 q=30.4 size=       0KiB time=00:00:00.50 bitrate=   0.7kbits/s speed=0.0112x elapsed=0:00:45.21    \nframe=   64 fps=1.4 q=30.3 size=       0KiB time=00:00:00.51 bitrate=   0.7kbits/s speed=0.0113x elapsed=0:00:45.74    \nframe=   64 fps=1.4 q=30.3 size=       0KiB time=00:00:00.51 bitrate=   0.7kbits/s speed=0.0112x elapsed=0:00:46.29    \nframe=   65 fps=1.4 q=30.6 size=       0KiB time=00:00:00.52 bitrate=   0.7kbits/s speed=0.0112x elapsed=0:00:46.82    \nframe=   66 fps=1.4 q=31.5 size=       0KiB time=00:00:00.53 bitrate=   0.7kbits/s speed=0.0113x elapsed=0:00:47.36    \nframe=   66 fps=1.4 q=31.5 size=       0KiB time=00:00:00.53 bitrate=   0.7kbits/s speed=0.0111x elapsed=0:00:47.87    \nframe=   67 fps=1.4 q=25.2 size=       0KiB time=00:00:00.54 bitrate=   0.6kbits/s speed=0.0112x elapsed=0:00:48.39    \nframe=   67 fps=1.4 q=25.2 size=       0KiB time=00:00:00.54 bitrate=   0.6kbits/s speed=0.0111x elapsed=0:00:48.92    \nframe=   69 fps=1.4 q=30.5 size=       0KiB time=00:00:00.55 bitrate=   0.6kbits/s speed=0.0113x elapsed=0:00:49.43    \nframe=   70 fps=1.4 q=30.2 size=       0KiB time=00:00:00.56 bitrate=   0.6kbits/s speed=0.0113x elapsed=0:00:49.94    \nframe=   71 fps=1.4 q=30.5 size=       0KiB time=00:00:00.57 bitrate=   0.6kbits/s speed=0.0114x elapsed=0:00:50.48    \nframe=   72 fps=1.4 q=24.6 size=       0KiB time=00:00:00.58 bitrate=   0.6kbits/s speed=0.0114x elapsed=0:00:50.99    \nframe=   74 fps=1.4 q=30.2 size=       0KiB time=00:00:00.60 bitrate=   0.6kbits/s speed=0.0116x elapsed=0:00:51.55    \nframe=   74 fps=1.4 q=30.2 size=       0KiB time=00:00:00.60 bitrate=   0.6kbits/s speed=0.0115x elapsed=0:00:52.07    \nframe=   74 fps=1.4 q=30.2 size=       0KiB time=00:00:00.60 bitrate=   0.6kbits/s speed=0.0114x elapsed=0:00:52.62    \nframe=   75 fps=1.4 q=30.5 size=       0KiB time=00:00:00.60 bitrate=   0.6kbits/s speed=0.0114x elapsed=0:00:53.15    \nframe=   76 fps=1.4 q=30.7 size=       0KiB time=00:00:00.61 bitrate=   0.6kbits/s speed=0.0115x elapsed=0:00:53.68    \nframe=   78 fps=1.4 q=29.5 size=       0KiB time=00:00:00.63 bitrate=   0.6kbits/s speed=0.0117x elapsed=0:00:54.20    \nframe=   78 fps=1.4 q=29.5 size=       0KiB time=00:00:00.63 bitrate=   0.6kbits/s speed=0.0116x elapsed=0:00:54.73    \nframe=   79 fps=1.4 q=30.3 size=       0KiB time=00:00:00.64 bitrate=   0.5kbits/s speed=0.0116x elapsed=0:00:55.24    \nframe=   79 fps=1.4 q=30.3 size=       0KiB time=00:00:00.64 bitrate=   0.5kbits/s speed=0.0115x elapsed=0:00:55.76    \nframe=   80 fps=1.4 q=30.2 size=       0KiB time=00:00:00.65 bitrate=   0.5kbits/s speed=0.0115x elapsed=0:00:56.29    \nframe=   81 fps=1.4 q=30.5 size=       0KiB time=00:00:00.65 bitrate=   0.5kbits/s speed=0.0116x elapsed=0:00:56.84    \nframe=   83 fps=1.4 q=29.2 size=       0KiB time=00:00:00.67 bitrate=   0.5kbits/s speed=0.0118x elapsed=0:00:57.37    \nframe=   83 fps=1.4 q=29.2 size=       0KiB time=00:00:00.67 bitrate=   0.5kbits/s speed=0.0117x elapsed=0:00:57.91    \nframe=   84 fps=1.4 q=29.2 size=       0KiB time=00:00:00.68 bitrate=   0.5kbits/s speed=0.0117x elapsed=0:00:58.44    \nframe=   84 fps=1.4 q=29.2 size=       0KiB time=00:00:00.68 bitrate=   0.5kbits/s speed=0.0116x elapsed=0:00:58.94    \nframe=   85 fps=1.4 q=30.2 size=       0KiB time=00:00:00.69 bitrate=   0.5kbits/s speed=0.0116x elapsed=0:00:59.47    \nframe=   86 fps=1.4 q=30.5 size=       0KiB time=00:00:00.70 bitrate=   0.5kbits/s speed=0.0117x elapsed=0:00:59.98    \nframe=   88 fps=1.5 q=29.4 size=       0KiB time=00:00:00.71 bitrate=   0.5kbits/s speed=0.0118x elapsed=0:01:00.49    \nframe=   88 fps=1.4 q=29.4 size=       0KiB time=00:00:00.71 bitrate=   0.5kbits/s speed=0.0117x elapsed=0:01:01.04    \nframe=   89 fps=1.4 q=29.7 size=       0KiB time=00:00:00.72 bitrate=   0.5kbits/s speed=0.0118x elapsed=0:01:01.57    \nframe=   90 fps=1.4 q=30.5 size=       0KiB time=00:00:00.73 bitrate=   0.5kbits/s speed=0.0118x elapsed=0:01:02.10    \nframe=   92 fps=1.5 q=24.4 size=       0KiB time=00:00:00.75 bitrate=   0.5kbits/s speed=0.012x elapsed=0:01:02.63    \nframe=   93 fps=1.5 q=29.3 size=     256KiB time=00:00:00.75 bitrate=2765.9kbits/s speed=0.012x elapsed=0:01:03.17    \nframe=   94 fps=1.5 q=29.4 size=     256KiB time=00:00:00.76 bitrate=2735.9kbits/s speed=0.012x elapsed=0:01:03.70    \nframe=   94 fps=1.5 q=29.4 size=     256KiB time=00:00:00.76 bitrate=2735.9kbits/s speed=0.0119x elapsed=0:01:04.22    \nframe=   96 fps=1.5 q=30.6 size=     256KiB time=00:00:00.78 bitrate=2677.7kbits/s speed=0.0121x elapsed=0:01:04.76    \nframe=   98 fps=1.5 q=29.2 size=     256KiB time=00:00:00.80 bitrate=2621.9kbits/s speed=0.0123x elapsed=0:01:05.29    \nframe=   99 fps=1.5 q=30.5 size=     256KiB time=00:00:00.80 bitrate=2594.9kbits/s speed=0.0123x elapsed=0:01:05.83    \nframe=  100 fps=1.5 q=30.7 size=     256KiB time=00:00:00.81 bitrate=2568.4kbits/s speed=0.0123x elapsed=0:01:06.36    \nframe=  101 fps=1.5 q=30.4 size=     256KiB time=00:00:00.82 bitrate=2542.4kbits/s speed=0.0123x elapsed=0:01:06.87    \nframe=  102 fps=1.5 q=24.1 size=     256KiB time=00:00:00.83 bitrate=2517.0kbits/s speed=0.0124x elapsed=0:01:07.40    \nframe=  104 fps=1.5 q=30.8 size=     256KiB time=00:00:00.85 bitrate=2467.7kbits/s speed=0.0125x elapsed=0:01:07.94    \nframe=  105 fps=1.5 q=29.8 size=     256KiB time=00:00:00.85 bitrate=2443.7kbits/s speed=0.0125x elapsed=0:01:08.47    \nframe=  105 fps=1.5 q=29.8 size=     256KiB time=00:00:00.85 bitrate=2443.7kbits/s speed=0.0124x elapsed=0:01:09.02    \nframe=  106 fps=1.5 q=30.7 size=     256KiB time=00:00:00.86 bitrate=2420.2kbits/s speed=0.0125x elapsed=0:01:09.56    \nframe=  109 fps=1.6 q=30.3 size=     256KiB time=00:00:00.89 bitrate=2352.3kbits/s speed=0.0127x elapsed=0:01:10.10    \nframe=  109 fps=1.5 q=30.3 size=     256KiB time=00:00:00.89 bitrate=2352.3kbits/s speed=0.0126x elapsed=0:01:10.62    \nframe=  110 fps=1.5 q=29.5 size=     256KiB time=00:00:00.90 bitrate=2330.6kbits/s speed=0.0126x elapsed=0:01:11.16    \nframe=  112 fps=1.6 q=23.8 size=     256KiB time=00:00:00.91 bitrate=2288.2kbits/s speed=0.0128x elapsed=0:01:11.71    \nframe=  113 fps=1.6 q=29.1 size=     256KiB time=00:00:00.92 bitrate=2267.6kbits/s speed=0.0128x elapsed=0:01:12.23    \nframe=  113 fps=1.6 q=29.1 size=     256KiB time=00:00:00.92 bitrate=2267.6kbits/s speed=0.0127x elapsed=0:01:12.74    \nframe=  114 fps=1.6 q=30.7 size=     256KiB time=00:00:00.93 bitrate=2247.3kbits/s speed=0.0127x elapsed=0:01:13.27    \nframe=  114 fps=1.5 q=30.7 size=     256KiB time=00:00:00.93 bitrate=2247.3kbits/s speed=0.0126x elapsed=0:01:13.79    \nframe=  114 fps=1.5 q=30.7 size=     256KiB time=00:00:00.93 bitrate=2247.3kbits/s speed=0.0126x elapsed=0:01:14.33    \nframe=  115 fps=1.5 q=29.5 size=     256KiB time=00:00:00.94 bitrate=2227.4kbits/s speed=0.0126x elapsed=0:01:14.85    \nframe=  115 fps=1.5 q=29.5 size=     256KiB time=00:00:00.94 bitrate=2227.4kbits/s speed=0.0125x elapsed=0:01:15.40    \nframe=  115 fps=1.5 q=29.5 size=     256KiB time=00:00:00.94 bitrate=2227.4kbits/s speed=0.0124x elapsed=0:01:15.93    \nframe=  117 fps=1.5 q=23.7 size=     256KiB time=00:00:00.95 bitrate=2188.7kbits/s speed=0.0125x elapsed=0:01:16.46    \nframe=  119 fps=1.5 q=30.7 size=     256KiB time=00:00:00.97 bitrate=2151.3kbits/s speed=0.0127x elapsed=0:01:16.99    \nframe=  119 fps=1.5 q=30.7 size=     256KiB time=00:00:00.97 bitrate=2151.3kbits/s speed=0.0126x elapsed=0:01:17.53    \nframe=  119 fps=1.5 q=30.7 size=     256KiB time=00:00:00.97 bitrate=2151.3kbits/s speed=0.0125x elapsed=0:01:18.05    \nframe=  120 fps=1.5 q=29.8 size=     256KiB time=00:00:00.98 bitrate=2133.1kbits/s speed=0.0125x elapsed=0:01:18.61    \nframe=  121 fps=1.5 q=29.8 size=     256KiB time=00:00:00.99 bitrate=2115.1kbits/s speed=0.0125x elapsed=0:01:19.15    \nframe=  122 fps=1.5 q=23.7 size=     256KiB time=00:00:01.00 bitrate=2097.5kbits/s speed=0.0126x elapsed=0:01:19.66    \nframe=  123 fps=1.5 q=28.6 size=     256KiB time=00:00:01.00 bitrate=2080.2kbits/s speed=0.0126x elapsed=0:01:20.20    \nframe=  124 fps=1.5 q=30.7 size=     256KiB time=00:00:01.01 bitrate=2063.1kbits/s speed=0.0126x elapsed=0:01:20.73    \nframe=  124 fps=1.5 q=30.7 size=     256KiB time=00:00:01.01 bitrate=2063.1kbits/s speed=0.0125x elapsed=0:01:21.26    \nframe=  126 fps=1.5 q=29.7 size=     256KiB time=00:00:01.02 bitrate=2046.3kbits/s speed=0.0125x elapsed=0:01:21.82    \nframe=  128 fps=1.6 q=28.6 size=     256KiB time=00:00:01.05 bitrate=1997.6kbits/s speed=0.0127x elapsed=0:01:22.39    \nframe=  129 fps=1.6 q=29.8 size=     256KiB time=00:00:01.05 bitrate=1981.9kbits/s speed=0.0128x elapsed=0:01:22.91    \nframe=  129 fps=1.5 q=29.8 size=     256KiB time=00:00:01.05 bitrate=1981.9kbits/s speed=0.0127x elapsed=0:01:23.43    \nframe=  131 fps=1.6 q=29.9 size=     256KiB time=00:00:01.07 bitrate=1951.2kbits/s speed=0.0128x elapsed=0:01:23.96    \nframe=  133 fps=1.6 q=28.6 size=     256KiB time=00:00:01.09 bitrate=1921.4kbits/s speed=0.0129x elapsed=0:01:24.49    \nframe=  134 fps=1.6 q=29.9 size=     256KiB time=00:00:01.10 bitrate=1906.8kbits/s speed=0.0129x elapsed=0:01:25.02    \nframe=  135 fps=1.6 q=29.7 size=     256KiB time=00:00:01.10 bitrate=1892.5kbits/s speed=0.013x elapsed=0:01:25.56    \nframe=  136 fps=1.6 q=29.8 size=     256KiB time=00:00:01.11 bitrate=1878.4kbits/s speed=0.013x elapsed=0:01:26.07    \nframe=  138 fps=1.6 q=28.6 size=     256KiB time=00:00:01.13 bitrate=1850.7kbits/s speed=0.0131x elapsed=0:01:26.60    \nframe=  139 fps=1.6 q=29.9 size=     256KiB time=00:00:01.14 bitrate=1837.2kbits/s speed=0.0131x elapsed=0:01:27.11    \nframe=  140 fps=1.6 q=29.6 size=     256KiB time=00:00:01.15 bitrate=1823.9kbits/s speed=0.0131x elapsed=0:01:27.64    \nframe=  141 fps=1.6 q=30.0 size=     256KiB time=00:00:01.15 bitrate=1810.8kbits/s speed=0.0131x elapsed=0:01:28.17    \nframe=  143 fps=1.6 q=28.7 size=     256KiB time=00:00:01.17 bitrate=1785.1kbits/s speed=0.0132x elapsed=0:01:28.70    \nframe=  145 fps=1.6 q=29.7 size=     256KiB time=00:00:01.19 bitrate=1760.1kbits/s speed=0.0134x elapsed=0:01:29.21    \nframe=  145 fps=1.6 q=29.7 size=     256KiB time=00:00:01.19 bitrate=1760.1kbits/s speed=0.0133x elapsed=0:01:29.73    \nframe=  146 fps=1.6 q=30.0 size=     256KiB time=00:00:01.20 bitrate=1747.9kbits/s speed=0.0133x elapsed=0:01:30.26    \nframe=  147 fps=1.6 q=23.3 size=     256KiB time=00:00:01.20 bitrate=1735.9kbits/s speed=0.0133x elapsed=0:01:30.82    \nframe=  148 fps=1.6 q=28.7 size=     256KiB time=00:00:01.21 bitrate=1724.0kbits/s speed=0.0133x elapsed=0:01:31.35    \nframe=  149 fps=1.6 q=29.8 size=     256KiB time=00:00:01.22 bitrate=1712.2kbits/s speed=0.0133x elapsed=0:01:31.87    \nframe=  149 fps=1.6 q=29.8 size=     256KiB time=00:00:01.22 bitrate=1712.2kbits/s speed=0.0133x elapsed=0:01:32.42    \nframe=  151 fps=1.6 q=29.9 size=     256KiB time=00:00:01.24 bitrate=1689.3kbits/s speed=0.0134x elapsed=0:01:32.97    \nframe=  152 fps=1.6 q=23.2 size=     256KiB time=00:00:01.25 bitrate=1678.0kbits/s speed=0.0134x elapsed=0:01:33.49    \nframe=  154 fps=1.6 q=29.9 size=     256KiB time=00:00:01.26 bitrate=1655.9kbits/s speed=0.0135x elapsed=0:01:34.01    \nframe=  154 fps=1.6 q=29.9 size=     256KiB time=00:00:01.26 bitrate=1655.9kbits/s speed=0.0134x elapsed=0:01:34.55    \nframe=  155 fps=1.6 q=28.9 size=     256KiB time=00:00:01.27 bitrate=1645.1kbits/s speed=0.0134x elapsed=0:01:35.06    \nframe=  158 fps=1.7 q=28.5 size=     256KiB time=00:00:01.30 bitrate=1613.5kbits/s speed=0.0136x elapsed=0:01:35.59    \nframe=  159 fps=1.7 q=29.9 size=     256KiB time=00:00:01.30 bitrate=1603.2kbits/s speed=0.0136x elapsed=0:01:36.12    \nframe=  159 fps=1.6 q=29.9 size=     256KiB time=00:00:01.30 bitrate=1603.2kbits/s speed=0.0135x elapsed=0:01:36.70    \nframe=  160 fps=1.6 q=28.7 size=     256KiB time=00:00:01.31 bitrate=1593.0kbits/s speed=0.0135x elapsed=0:01:37.24    \nframe=  161 fps=1.6 q=29.9 size=     256KiB time=00:00:01.32 bitrate=1583.0kbits/s speed=0.0136x elapsed=0:01:37.77    \nframe=  162 fps=1.6 q=22.9 size=     256KiB time=00:00:01.33 bitrate=1573.1kbits/s speed=0.0136x elapsed=0:01:38.29    \nframe=  163 fps=1.6 q=28.6 size=     256KiB time=00:00:01.34 bitrate=1563.4kbits/s speed=0.0136x elapsed=0:01:38.80    \nframe=  164 fps=1.7 q=29.9 size=     256KiB time=00:00:01.35 bitrate=1553.7kbits/s speed=0.0136x elapsed=0:01:39.33    \nframe=  164 fps=1.6 q=29.9 size=     256KiB time=00:00:01.35 bitrate=1553.7kbits/s speed=0.0135x elapsed=0:01:39.86    \nframe=  166 fps=1.7 q=29.8 size=     256KiB time=00:00:01.36 bitrate=1534.8kbits/s speed=0.0136x elapsed=0:01:40.40    \nframe=  166 fps=1.6 q=29.8 size=     256KiB time=00:00:01.36 bitrate=1534.8kbits/s speed=0.0135x elapsed=0:01:40.91    \nframe=  166 fps=1.6 q=29.8 size=     256KiB time=00:00:01.36 bitrate=1534.8kbits/s speed=0.0135x elapsed=0:01:41.43    \nframe=  167 fps=1.6 q=22.8 size=     256KiB time=00:00:01.37 bitrate=1525.5kbits/s speed=0.0135x elapsed=0:01:41.94    \nframe=  169 fps=1.6 q=29.8 size=     512KiB time=00:00:01.39 bitrate=3014.1kbits/s speed=0.0136x elapsed=0:01:42.47    \nframe=  169 fps=1.6 q=29.8 size=     512KiB time=00:00:01.39 bitrate=3014.1kbits/s speed=0.0135x elapsed=0:01:43.00    \nframe=  170 fps=1.6 q=28.8 size=     512KiB time=00:00:01.40 bitrate=2996.2kbits/s speed=0.0135x elapsed=0:01:43.52    \nframe=  172 fps=1.7 q=22.7 size=     512KiB time=00:00:01.41 bitrate=2960.9kbits/s speed=0.0136x elapsed=0:01:44.06    \nframe=  173 fps=1.7 q=28.8 size=     512KiB time=00:00:01.42 bitrate=2943.6kbits/s speed=0.0136x elapsed=0:01:44.60    \nframe=  174 fps=1.7 q=29.9 size=     512KiB time=00:00:01.43 bitrate=2926.5kbits/s speed=0.0136x elapsed=0:01:45.14    \nframe=  175 fps=1.7 q=28.8 size=     512KiB time=00:00:01.44 bitrate=2909.6kbits/s speed=0.0136x elapsed=0:01:45.67    \nframe=  176 fps=1.7 q=29.8 size=     512KiB time=00:00:01.45 bitrate=2892.9kbits/s speed=0.0137x elapsed=0:01:46.19    \nframe=  176 fps=1.6 q=29.8 size=     512KiB time=00:00:01.45 bitrate=2892.9kbits/s speed=0.0136x elapsed=0:01:46.71    \nframe=  177 fps=1.7 q=22.8 size=     512KiB time=00:00:01.45 bitrate=2876.3kbits/s speed=0.0136x elapsed=0:01:47.23    \nframe=  178 fps=1.7 q=28.6 size=     512KiB time=00:00:01.46 bitrate=2860.0kbits/s speed=0.0136x elapsed=0:01:47.78    \nframe=  179 fps=1.7 q=29.9 size=     512KiB time=00:00:01.47 bitrate=2843.8kbits/s speed=0.0136x elapsed=0:01:48.31    \nframe=  180 fps=1.7 q=28.7 size=     512KiB time=00:00:01.48 bitrate=2827.9kbits/s speed=0.0136x elapsed=0:01:48.84    \nframe=  181 fps=1.7 q=29.9 size=     512KiB time=00:00:01.49 bitrate=2812.1kbits/s speed=0.0136x elapsed=0:01:49.39    \nframe=  183 fps=1.7 q=28.4 size=     512KiB time=00:00:01.50 bitrate=2781.0kbits/s speed=0.0137x elapsed=0:01:49.91    \nframe=  184 fps=1.7 q=29.5 size=     512KiB time=00:00:01.51 bitrate=2765.7kbits/s speed=0.0137x elapsed=0:01:50.45    \nframe=  184 fps=1.7 q=29.5 size=     512KiB time=00:00:01.51 bitrate=2765.7kbits/s speed=0.0137x elapsed=0:01:50.98    \nframe=  186 fps=1.7 q=29.5 size=     512KiB time=00:00:01.53 bitrate=2735.6kbits/s speed=0.0138x elapsed=0:01:51.51    \nframe=  188 fps=1.7 q=28.8 size=     512KiB time=00:00:01.55 bitrate=2706.2kbits/s speed=0.0138x elapsed=0:01:52.05    \nframe=  189 fps=1.7 q=29.8 size=     512KiB time=00:00:01.55 bitrate=2691.8kbits/s speed=0.0138x elapsed=0:01:52.56    \nframe=  189 fps=1.7 q=29.8 size=     512KiB time=00:00:01.55 bitrate=2691.8kbits/s speed=0.0138x elapsed=0:01:53.10    \nframe=  191 fps=1.7 q=29.5 size=     512KiB time=00:00:01.57 bitrate=2663.3kbits/s speed=0.0139x elapsed=0:01:53.62    \nframe=  193 fps=1.7 q=28.7 size=     512KiB time=00:00:01.59 bitrate=2635.4kbits/s speed=0.0139x elapsed=0:01:54.14    \nframe=  194 fps=1.7 q=29.8 size=     512KiB time=00:00:01.60 bitrate=2621.7kbits/s speed=0.014x elapsed=0:01:54.66    \nframe=  195 fps=1.7 q=28.8 size=     512KiB time=00:00:01.60 bitrate=2608.1kbits/s speed=0.014x elapsed=0:01:55.19    \nframe=  196 fps=1.7 q=29.6 size=     512KiB time=00:00:01.61 bitrate=2594.6kbits/s speed=0.014x elapsed=0:01:55.74    \nframe=  197 fps=1.7 q=22.7 size=     512KiB time=00:00:01.62 bitrate=2581.3kbits/s speed=0.014x elapsed=0:01:56.27    \nframe=  199 fps=1.7 q=29.7 size=     512KiB time=00:00:01.64 bitrate=2555.1kbits/s speed=0.0141x elapsed=0:01:56.80    \nframe=  199 fps=1.7 q=29.7 size=     512KiB time=00:00:01.64 bitrate=2555.1kbits/s speed=0.014x elapsed=0:01:57.36    \nframe=  200 fps=1.7 q=28.8 size=     512KiB time=00:00:01.65 bitrate=2542.2kbits/s speed=0.014x elapsed=0:01:57.89    \nframe=  200 fps=1.7 q=28.8 size=     512KiB time=00:00:01.65 bitrate=2542.2kbits/s speed=0.0139x elapsed=0:01:58.41    \nframe=  202 fps=1.7 q=22.6 size=     512KiB time=00:00:01.66 bitrate=2516.8kbits/s speed=0.014x elapsed=0:01:58.93    \nframe=  202 fps=1.7 q=22.6 size=     512KiB time=00:00:01.66 bitrate=2516.8kbits/s speed=0.0139x elapsed=0:01:59.47    \nframe=  203 fps=1.7 q=28.7 size=     512KiB time=00:00:01.67 bitrate=2504.3kbits/s speed=0.014x elapsed=0:02:00.01    \nframe=  204 fps=1.7 q=29.8 size=     512KiB time=00:00:01.68 bitrate=2491.9kbits/s speed=0.014x elapsed=0:02:00.54    \nframe=  204 fps=1.7 q=29.8 size=     512KiB time=00:00:01.68 bitrate=2491.9kbits/s speed=0.0139x elapsed=0:02:01.07    \nframe=  204 fps=1.7 q=29.8 size=     512KiB time=00:00:01.68 bitrate=2491.9kbits/s speed=0.0138x elapsed=0:02:01.59    \nframe=  204 fps=1.7 q=29.8 size=     512KiB time=00:00:01.68 bitrate=2491.9kbits/s speed=0.0138x elapsed=0:02:02.13    \nframe=  205 fps=1.7 q=28.7 size=     512KiB time=00:00:01.69 bitrate=2479.6kbits/s speed=0.0138x elapsed=0:02:02.65    \nframe=  207 fps=1.7 q=22.6 size=     512KiB time=00:00:01.70 bitrate=2455.4kbits/s speed=0.0139x elapsed=0:02:03.18    \nframe=  207 fps=1.7 q=22.6 size=     512KiB time=00:00:01.70 bitrate=2455.4kbits/s speed=0.0138x elapsed=0:02:03.69    \nframe=  208 fps=1.7 q=28.8 size=     512KiB time=00:00:01.71 bitrate=2443.5kbits/s speed=0.0138x elapsed=0:02:04.23    \nframe=  209 fps=1.7 q=29.9 size=     512KiB time=00:00:01.72 bitrate=2431.7kbits/s speed=0.0138x elapsed=0:02:04.77    \nframe=  210 fps=1.7 q=28.9 size=     512KiB time=00:00:01.73 bitrate=2420.0kbits/s speed=0.0138x elapsed=0:02:05.32    \nframe=  211 fps=1.7 q=29.4 size=     512KiB time=00:00:01.74 bitrate=2408.4kbits/s speed=0.0138x elapsed=0:02:05.84    \nframe=  211 fps=1.7 q=29.4 size=     512KiB time=00:00:01.74 bitrate=2408.4kbits/s speed=0.0138x elapsed=0:02:06.35    \nframe=  211 fps=1.7 q=29.4 size=     512KiB time=00:00:01.74 bitrate=2408.4kbits/s speed=0.0137x elapsed=0:02:06.89    \nframe=  213 fps=1.7 q=28.6 size=     512KiB time=00:00:01.75 bitrate=2385.6kbits/s speed=0.0138x elapsed=0:02:07.41    \nframe=  214 fps=1.7 q=30.0 size=     512KiB time=00:00:01.76 bitrate=2374.3kbits/s speed=0.0138x elapsed=0:02:07.96    \nframe=  214 fps=1.7 q=30.0 size=     512KiB time=00:00:01.76 bitrate=2374.3kbits/s speed=0.0137x elapsed=0:02:08.49    \nframe=  216 fps=1.7 q=29.9 size=     512KiB time=00:00:01.78 bitrate=2352.1kbits/s speed=0.0138x elapsed=0:02:09.02    \nframe=  217 fps=1.7 q=22.6 size=     512KiB time=00:00:01.79 bitrate=2341.2kbits/s speed=0.0138x elapsed=0:02:09.56    \nframe=  217 fps=1.7 q=22.6 size=     512KiB time=00:00:01.79 bitrate=2341.2kbits/s speed=0.0138x elapsed=0:02:10.08    \nframe=  218 fps=1.7 q=28.9 size=     512KiB time=00:00:01.80 bitrate=2330.4kbits/s speed=0.0138x elapsed=0:02:10.61    \nframe=  218 fps=1.7 q=28.9 size=     512KiB time=00:00:01.80 bitrate=2330.4kbits/s speed=0.0137x elapsed=0:02:11.14    \nframe=  219 fps=1.7 q=29.7 size=     512KiB time=00:00:01.80 bitrate=2319.6kbits/s speed=0.0137x elapsed=0:02:11.69    \nframe=  219 fps=1.7 q=29.7 size=     512KiB time=00:00:01.80 bitrate=2319.6kbits/s speed=0.0137x elapsed=0:02:12.22    \nframe=  219 fps=1.6 q=29.7 size=     512KiB time=00:00:01.80 bitrate=2319.6kbits/s speed=0.0136x elapsed=0:02:12.76    \nframe=  220 fps=1.7 q=28.9 size=     512KiB time=00:00:01.81 bitrate=2309.0kbits/s speed=0.0136x elapsed=0:02:13.29    \nframe=  221 fps=1.7 q=30.0 size=     512KiB time=00:00:01.82 bitrate=2298.4kbits/s speed=0.0136x elapsed=0:02:13.82    \nframe=  222 fps=1.7 q=22.6 size=     512KiB time=00:00:01.83 bitrate=2288.0kbits/s speed=0.0136x elapsed=0:02:14.34    \nframe=  223 fps=1.7 q=28.7 size=     512KiB time=00:00:01.84 bitrate=2277.6kbits/s speed=0.0137x elapsed=0:02:14.87    \nframe=  224 fps=1.7 q=29.8 size=     512KiB time=00:00:01.85 bitrate=2267.4kbits/s speed=0.0137x elapsed=0:02:15.39    \nframe=  224 fps=1.6 q=29.8 size=     512KiB time=00:00:01.85 bitrate=2267.4kbits/s speed=0.0136x elapsed=0:02:15.91    \nframe=  224 fps=1.6 q=29.8 size=     512KiB time=00:00:01.85 bitrate=2267.4kbits/s speed=0.0136x elapsed=0:02:16.44    \nframe=  226 fps=1.6 q=29.9 size=     512KiB time=00:00:01.86 bitrate=2247.1kbits/s speed=0.0136x elapsed=0:02:16.98    \nframe=  226 fps=1.6 q=29.9 size=     512KiB time=00:00:01.86 bitrate=2247.1kbits/s speed=0.0136x elapsed=0:02:17.49    \nframe=  228 fps=1.7 q=29.8 size=     512KiB time=00:00:01.88 bitrate=2227.3kbits/s speed=0.0136x elapsed=0:02:18.01    \nframe=  228 fps=1.6 q=29.8 size=     512KiB time=00:00:01.88 bitrate=2227.3kbits/s speed=0.0136x elapsed=0:02:18.53    \nframe=  229 fps=1.6 q=30.0 size=     512KiB time=00:00:01.89 bitrate=2217.4kbits/s speed=0.0136x elapsed=0:02:19.06    \nframe=  229 fps=1.6 q=30.0 size=     512KiB time=00:00:01.89 bitrate=2217.4kbits/s speed=0.0136x elapsed=0:02:19.58    \nframe=  230 fps=1.6 q=29.9 size=     512KiB time=00:00:01.90 bitrate=2207.7kbits/s speed=0.0136x elapsed=0:02:20.10    \nframe=  231 fps=1.6 q=29.9 size=     512KiB time=00:00:01.90 bitrate=2198.1kbits/s speed=0.0136x elapsed=0:02:20.64    \nframe=  233 fps=1.7 q=30.8 size=     768KiB time=00:00:01.92 bitrate=3268.5kbits/s speed=0.0136x elapsed=0:02:21.16    \nframe=  233 fps=1.6 q=30.8 size=     768KiB time=00:00:01.92 bitrate=3268.5kbits/s speed=0.0136x elapsed=0:02:21.68    \nframe=  233 fps=1.6 q=30.8 size=     768KiB time=00:00:01.92 bitrate=3268.5kbits/s speed=0.0135x elapsed=0:02:22.20    \nframe=  234 fps=1.6 q=30.8 size=     768KiB time=00:00:01.93 bitrate=3254.4kbits/s speed=0.0135x elapsed=0:02:22.72    \nframe=  234 fps=1.6 q=30.8 size=     768KiB time=00:00:01.93 bitrate=3254.4kbits/s speed=0.0135x elapsed=0:02:23.26    \nframe=  236 fps=1.6 q=30.9 size=     768KiB time=00:00:01.95 bitrate=3226.6kbits/s speed=0.0136x elapsed=0:02:23.78    \nframe=  236 fps=1.6 q=30.9 size=     768KiB time=00:00:01.95 bitrate=3226.6kbits/s speed=0.0135x elapsed=0:02:24.31    \nframe=  237 fps=1.6 q=22.9 size=     768KiB time=00:00:01.95 bitrate=3212.8kbits/s speed=0.0135x elapsed=0:02:24.84    \nframe=  237 fps=1.6 q=22.9 size=     768KiB time=00:00:01.95 bitrate=3212.8kbits/s speed=0.0135x elapsed=0:02:25.36    \nframe=  240 fps=1.6 q=30.8 size=     768KiB time=00:00:01.98 bitrate=3172.3kbits/s speed=0.0136x elapsed=0:02:25.92    \nframe=  240 fps=1.6 q=30.8 size=     768KiB time=00:00:01.98 bitrate=3172.3kbits/s speed=0.0135x elapsed=0:02:26.47    \nframe=  241 fps=1.6 q=30.9 size=     768KiB time=00:00:01.99 bitrate=3159.1kbits/s speed=0.0135x elapsed=0:02:27.00    \nframe=  242 fps=1.6 q=22.9 size=     768KiB time=00:00:02.00 bitrate=3145.9kbits/s speed=0.0136x elapsed=0:02:27.52    \nframe=  243 fps=1.6 q=31.9 size=     768KiB time=00:00:02.00 bitrate=3132.9kbits/s speed=0.0136x elapsed=0:02:28.08    \nframe=  244 fps=1.6 q=31.8 size=     768KiB time=00:00:02.01 bitrate=3119.9kbits/s speed=0.0136x elapsed=0:02:28.60    \nframe=  244 fps=1.6 q=31.8 size=     768KiB time=00:00:02.01 bitrate=3119.9kbits/s speed=0.0135x elapsed=0:02:29.14    \nframe=  244 fps=1.6 q=31.8 size=     768KiB time=00:00:02.01 bitrate=3119.9kbits/s speed=0.0135x elapsed=0:02:29.67    \nframe=  244 fps=1.6 q=31.8 size=     768KiB time=00:00:02.01 bitrate=3119.9kbits/s speed=0.0134x elapsed=0:02:30.18    \nframe=  244 fps=1.6 q=31.8 size=     768KiB time=00:00:02.01 bitrate=3119.9kbits/s speed=0.0134x elapsed=0:02:30.71    \nframe=  245 fps=1.6 q=31.8 size=     768KiB time=00:00:02.02 bitrate=3107.1kbits/s speed=0.0134x elapsed=0:02:31.23    \nframe=  245 fps=1.6 q=31.8 size=     768KiB time=00:00:02.02 bitrate=3107.1kbits/s speed=0.0133x elapsed=0:02:31.79    \nframe=  245 fps=1.6 q=31.8 size=     768KiB time=00:00:02.02 bitrate=3107.1kbits/s speed=0.0133x elapsed=0:02:32.32    \nframe=  246 fps=1.6 q=31.8 size=     768KiB time=00:00:02.03 bitrate=3094.3kbits/s speed=0.0133x elapsed=0:02:32.83    \nframe=  246 fps=1.6 q=31.8 size=     768KiB time=00:00:02.03 bitrate=3094.3kbits/s speed=0.0133x elapsed=0:02:33.37    \nframe=  249 fps=1.6 q=31.7 size=     768KiB time=00:00:02.05 bitrate=3056.7kbits/s speed=0.0134x elapsed=0:02:33.90    \nframe=  251 fps=1.6 q=31.7 size=     768KiB time=00:00:02.07 bitrate=3032.2kbits/s speed=0.0134x elapsed=0:02:34.46    \nframe=  252 fps=1.6 q=23.7 size=     768KiB time=00:00:02.08 bitrate=3020.1kbits/s speed=0.0134x elapsed=0:02:35.01    \nframe=  253 fps=1.6 q=30.9 size=     768KiB time=00:00:02.09 bitrate=3008.0kbits/s speed=0.0134x elapsed=0:02:35.56    \nframe=  253 fps=1.6 q=30.9 size=     768KiB time=00:00:02.09 bitrate=3008.0kbits/s speed=0.0134x elapsed=0:02:36.08    \nframe=  254 fps=1.6 q=32.7 size=     768KiB time=00:00:02.10 bitrate=2996.1kbits/s speed=0.0134x elapsed=0:02:36.62    \nframe=  255 fps=1.6 q=32.7 size=     768KiB time=00:00:02.10 bitrate=2984.3kbits/s speed=0.0134x elapsed=0:02:37.17    \nframe=  256 fps=1.6 q=32.8 size=     768KiB time=00:00:02.11 bitrate=2972.5kbits/s speed=0.0134x elapsed=0:02:37.70    \nframe=  257 fps=1.6 q=23.8 size=     768KiB time=00:00:02.12 bitrate=2960.9kbits/s speed=0.0134x elapsed=0:02:38.21    \nframe=  258 fps=1.6 q=30.8 size=     768KiB time=00:00:02.13 bitrate=2949.3kbits/s speed=0.0134x elapsed=0:02:38.74    \nframe=  260 fps=1.6 q=32.7 size=     768KiB time=00:00:02.15 bitrate=2926.4kbits/s speed=0.0135x elapsed=0:02:39.27    \nframe=  261 fps=1.6 q=32.8 size=     768KiB time=00:00:02.15 bitrate=2915.1kbits/s speed=0.0135x elapsed=0:02:39.81    \nframe=  261 fps=1.6 q=32.8 size=     768KiB time=00:00:02.15 bitrate=2915.1kbits/s speed=0.0135x elapsed=0:02:40.35    \nframe=  261 fps=1.6 q=32.8 size=     768KiB time=00:00:02.15 bitrate=2915.1kbits/s speed=0.0134x elapsed=0:02:40.88    \nframe=  263 fps=1.6 q=30.8 size=     768KiB time=00:00:02.17 bitrate=2892.8kbits/s speed=0.0135x elapsed=0:02:41.41    \nframe=  263 fps=1.6 q=30.8 size=     768KiB time=00:00:02.17 bitrate=2892.8kbits/s speed=0.0134x elapsed=0:02:41.94    \nframe=  265 fps=1.6 q=32.8 size=     768KiB time=00:00:02.19 bitrate=2870.8kbits/s speed=0.0135x elapsed=0:02:42.47    \nframe=  265 fps=1.6 q=32.8 size=     768KiB time=00:00:02.19 bitrate=2870.8kbits/s speed=0.0134x elapsed=0:02:43.00    \nframe=  266 fps=1.6 q=32.9 size=     768KiB time=00:00:02.20 bitrate=2859.9kbits/s speed=0.0135x elapsed=0:02:43.53    \nframe=  266 fps=1.6 q=32.9 size=     768KiB time=00:00:02.20 bitrate=2859.9kbits/s speed=0.0134x elapsed=0:02:44.07    \nframe=  267 fps=1.6 q=23.9 size=     768KiB time=00:00:02.20 bitrate=2849.1kbits/s speed=0.0134x elapsed=0:02:44.59    \nframe=  267 fps=1.6 q=23.9 size=     768KiB time=00:00:02.20 bitrate=2849.1kbits/s speed=0.0134x elapsed=0:02:45.11    \nframe=  269 fps=1.6 q=32.8 size=     768KiB time=00:00:02.22 bitrate=2827.8kbits/s speed=0.0134x elapsed=0:02:45.64    \nframe=  271 fps=1.6 q=32.8 size=     768KiB time=00:00:02.24 bitrate=2806.8kbits/s speed=0.0135x elapsed=0:02:46.16    \nframe=  273 fps=1.6 q=30.7 size=     768KiB time=00:00:02.25 bitrate=2786.0kbits/s speed=0.0135x elapsed=0:02:46.69    \nframe=  274 fps=1.6 q=32.8 size=     768KiB time=00:00:02.26 bitrate=2775.8kbits/s speed=0.0136x elapsed=0:02:47.22    \nframe=  274 fps=1.6 q=32.8 size=     768KiB time=00:00:02.26 bitrate=2775.8kbits/s speed=0.0135x elapsed=0:02:47.76    \nframe=  276 fps=1.6 q=32.7 size=     768KiB time=00:00:02.28 bitrate=2755.5kbits/s speed=0.0136x elapsed=0:02:48.28    \nframe=  277 fps=1.6 q=23.9 size=     768KiB time=00:00:02.29 bitrate=2745.5kbits/s speed=0.0136x elapsed=0:02:48.80    \nframe=  277 fps=1.6 q=23.9 size=     768KiB time=00:00:02.29 bitrate=2745.5kbits/s speed=0.0135x elapsed=0:02:49.32    \nframe=  279 fps=1.6 q=32.8 size=    1024KiB time=00:00:02.30 bitrate=3634.2kbits/s speed=0.0136x elapsed=0:02:49.88    \nframe=  280 fps=1.6 q=32.6 size=    1024KiB time=00:00:02.31 bitrate=3621.1kbits/s speed=0.0136x elapsed=0:02:50.41    \nframe=  280 fps=1.6 q=32.6 size=    1024KiB time=00:00:02.31 bitrate=3621.1kbits/s speed=0.0136x elapsed=0:02:50.92    \nframe=  281 fps=1.6 q=32.6 size=    1024KiB time=00:00:02.32 bitrate=3608.2kbits/s speed=0.0136x elapsed=0:02:51.44    \nframe=  283 fps=1.6 q=30.7 size=    1024KiB time=00:00:02.34 bitrate=3582.5kbits/s speed=0.0136x elapsed=0:02:51.96    \nframe=  285 fps=1.7 q=31.7 size=    1024KiB time=00:00:02.35 bitrate=3557.2kbits/s speed=0.0137x elapsed=0:02:52.50    \nframe=  286 fps=1.7 q=31.7 size=    1024KiB time=00:00:02.36 bitrate=3544.6kbits/s speed=0.0137x elapsed=0:02:53.01    \nframe=  286 fps=1.6 q=31.7 size=    1024KiB time=00:00:02.36 bitrate=3544.6kbits/s speed=0.0136x elapsed=0:02:53.54    \nframe=  288 fps=1.7 q=30.8 size=    1024KiB time=00:00:02.38 bitrate=3519.8kbits/s speed=0.0137x elapsed=0:02:54.07    \nframe=  288 fps=1.6 q=30.8 size=    1024KiB time=00:00:02.38 bitrate=3519.8kbits/s speed=0.0137x elapsed=0:02:54.59    \nframe=  291 fps=1.7 q=30.8 size=    1024KiB time=00:00:02.40 bitrate=3483.3kbits/s speed=0.0138x elapsed=0:02:55.11    \nframe=  291 fps=1.7 q=30.8 size=    1024KiB time=00:00:02.40 bitrate=3483.3kbits/s speed=0.0137x elapsed=0:02:55.64    \nframe=  291 fps=1.7 q=30.8 size=    1024KiB time=00:00:02.40 bitrate=3483.3kbits/s speed=0.0137x elapsed=0:02:56.17    \nframe=  292 fps=1.7 q=23.6 size=    1024KiB time=00:00:02.41 bitrate=3471.3kbits/s speed=0.0137x elapsed=0:02:56.71    \nframe=  292 fps=1.6 q=23.6 size=    1024KiB time=00:00:02.41 bitrate=3471.3kbits/s speed=0.0136x elapsed=0:02:57.25    \nframe=  292 fps=1.6 q=23.6 size=    1024KiB time=00:00:02.41 bitrate=3471.3kbits/s speed=0.0136x elapsed=0:02:57.78    \nframe=  294 fps=1.6 q=31.7 size=    1024KiB time=00:00:02.43 bitrate=3447.5kbits/s speed=0.0136x elapsed=0:02:58.31    \nframe=  295 fps=1.6 q=30.8 size=    1024KiB time=00:00:02.44 bitrate=3435.8kbits/s speed=0.0137x elapsed=0:02:58.84    \nframe=  296 fps=1.7 q=30.5 size=    1024KiB time=00:00:02.45 bitrate=3424.1kbits/s speed=0.0137x elapsed=0:02:59.36    \nframe=  298 fps=1.7 q=29.7 size=    1024KiB time=00:00:02.46 bitrate=3400.9kbits/s speed=0.0137x elapsed=0:02:59.88    \nframe=  300 fps=1.7 q=30.5 size=    1024KiB time=00:00:02.48 bitrate=3378.1kbits/s speed=0.0138x elapsed=0:03:00.41    \nframe=  301 fps=1.7 q=29.8 size=    1024KiB time=00:00:02.49 bitrate=3366.8kbits/s speed=0.0138x elapsed=0:03:00.94    \nframe=  301 fps=1.7 q=29.8 size=    1024KiB time=00:00:02.49 bitrate=3366.8kbits/s speed=0.0137x elapsed=0:03:01.45    \nframe=  301 fps=1.7 q=29.8 size=    1024KiB time=00:00:02.49 bitrate=3366.8kbits/s speed=0.0137x elapsed=0:03:01.99    \nframe=  303 fps=1.7 q=29.8 size=    1024KiB time=00:00:02.50 bitrate=3344.4kbits/s speed=0.0137x elapsed=0:03:02.52    \nframe=  304 fps=1.7 q=29.8 size=    1024KiB time=00:00:02.51 bitrate=3333.4kbits/s speed=0.0137x elapsed=0:03:03.05    \nframe=  304 fps=1.7 q=29.8 size=    1024KiB time=00:00:02.51 bitrate=3333.4kbits/s speed=0.0137x elapsed=0:03:03.57    \nframe=  305 fps=1.7 q=29.9 size=    1024KiB time=00:00:02.52 bitrate=3322.4kbits/s speed=0.0137x elapsed=0:03:04.10    \nframe=  306 fps=1.7 q=29.8 size=    1024KiB time=00:00:02.52 bitrate=3322.4kbits/s speed=0.0137x elapsed=0:03:04.63    \nframe=  306 fps=1.7 q=29.8 size=    1024KiB time=00:00:02.53 bitrate=3311.4kbits/s speed=0.0137x elapsed=0:03:05.17    \nframe=  308 fps=1.7 q=29.8 size=    1024KiB time=00:00:02.55 bitrate=3289.8kbits/s speed=0.0137x elapsed=0:03:05.69    \nframe=  309 fps=1.7 q=29.9 size=    1024KiB time=00:00:02.55 bitrate=3279.1kbits/s speed=0.0137x elapsed=0:03:06.20    \nframe=  310 fps=1.7 q=29.8 size=    1024KiB time=00:00:02.56 bitrate=3268.4kbits/s speed=0.0137x elapsed=0:03:06.71    \nframe=  311 fps=1.7 q=29.9 size=    1024KiB time=00:00:02.57 bitrate=3257.8kbits/s speed=0.0138x elapsed=0:03:07.23    \nframe=  312 fps=1.7 q=23.0 size=    1024KiB time=00:00:02.58 bitrate=3247.3kbits/s speed=0.0138x elapsed=0:03:07.75    \nframe=  312 fps=1.7 q=23.0 size=    1024KiB time=00:00:02.58 bitrate=3247.3kbits/s speed=0.0137x elapsed=0:03:08.28    \nframe=  313 fps=1.7 q=28.6 size=    1024KiB time=00:00:02.59 bitrate=3236.9kbits/s speed=0.0137x elapsed=0:03:08.81    \nframe=  314 fps=1.7 q=29.8 size=    1024KiB time=00:00:02.60 bitrate=3226.5kbits/s speed=0.0137x elapsed=0:03:09.32    \nframe=  314 fps=1.7 q=29.8 size=    1024KiB time=00:00:02.60 bitrate=3226.5kbits/s speed=0.0137x elapsed=0:03:09.85    \nframe=  314 fps=1.6 q=29.8 size=    1024KiB time=00:00:02.60 bitrate=3226.5kbits/s speed=0.0137x elapsed=0:03:10.37    \nframe=  314 fps=1.6 q=29.8 size=    1024KiB time=00:00:02.60 bitrate=3226.5kbits/s speed=0.0136x elapsed=0:03:10.90    \nframe=  316 fps=1.7 q=29.7 size=    1024KiB time=00:00:02.61 bitrate=3206.0kbits/s speed=0.0137x elapsed=0:03:11.45    \nframe=  317 fps=1.7 q=22.8 size=    1024KiB time=00:00:02.62 bitrate=3195.8kbits/s speed=0.0137x elapsed=0:03:11.99    \nframe=  318 fps=1.7 q=28.7 size=    1024KiB time=00:00:02.63 bitrate=3185.7kbits/s speed=0.0137x elapsed=0:03:12.52    \nframe=  320 fps=1.7 q=29.6 size=    1024KiB time=00:00:02.65 bitrate=3165.6kbits/s speed=0.0137x elapsed=0:03:13.09    \nframe=  320 fps=1.7 q=29.6 size=    1024KiB time=00:00:02.65 bitrate=3165.6kbits/s speed=0.0137x elapsed=0:03:13.61    \nframe=  321 fps=1.7 q=29.8 size=    1024KiB time=00:00:02.65 bitrate=3155.7kbits/s speed=0.0137x elapsed=0:03:14.17    \nframe=  321 fps=1.6 q=29.8 size=    1024KiB time=00:00:02.65 bitrate=3155.7kbits/s speed=0.0137x elapsed=0:03:14.73    \nframe=  324 fps=1.7 q=29.8 size=    1024KiB time=00:00:02.68 bitrate=3126.3kbits/s speed=0.0137x elapsed=0:03:15.26    \nframe=  324 fps=1.7 q=29.8 size=    1024KiB time=00:00:02.68 bitrate=3126.3kbits/s speed=0.0137x elapsed=0:03:15.77    \nframe=  325 fps=1.7 q=29.9 size=    1024KiB time=00:00:02.69 bitrate=3116.6kbits/s speed=0.0137x elapsed=0:03:16.32    \nframe=  326 fps=1.7 q=29.6 size=    1024KiB time=00:00:02.70 bitrate=3107.0kbits/s speed=0.0137x elapsed=0:03:16.86    \nframe=  327 fps=1.7 q=22.8 size=    1024KiB time=00:00:02.70 bitrate=3097.5kbits/s speed=0.0137x elapsed=0:03:17.41    \nframe=  327 fps=1.7 q=22.8 size=    1024KiB time=00:00:02.70 bitrate=3097.5kbits/s speed=0.0137x elapsed=0:03:17.94    \nframe=  327 fps=1.6 q=22.8 size=    1024KiB time=00:00:02.70 bitrate=3097.5kbits/s speed=0.0136x elapsed=0:03:18.44    \nframe=  328 fps=1.6 q=29.6 size=    1024KiB time=00:00:02.71 bitrate=3088.0kbits/s speed=0.0137x elapsed=0:03:18.97    \nframe=  328 fps=1.6 q=29.6 size=    1024KiB time=00:00:02.71 bitrate=3088.0kbits/s speed=0.0136x elapsed=0:03:19.50    \nframe=  331 fps=1.7 q=29.8 size=    1024KiB time=00:00:02.74 bitrate=3059.8kbits/s speed=0.0137x elapsed=0:03:20.02    \nframe=  331 fps=1.7 q=29.8 size=    1024KiB time=00:00:02.74 bitrate=3059.8kbits/s speed=0.0137x elapsed=0:03:20.56    \nframe=  332 fps=1.7 q=22.9 size=    1024KiB time=00:00:02.75 bitrate=3050.5kbits/s speed=0.0137x elapsed=0:03:21.08    \nframe=  333 fps=1.7 q=29.6 size=    1024KiB time=00:00:02.75 bitrate=3041.3kbits/s speed=0.0137x elapsed=0:03:21.60    \nframe=  336 fps=1.7 q=29.7 size=    1024KiB time=00:00:02.78 bitrate=3014.0kbits/s speed=0.0138x elapsed=0:03:22.12    \nframe=  337 fps=1.7 q=22.7 size=    1024KiB time=00:00:02.79 bitrate=3005.0kbits/s speed=0.0138x elapsed=0:03:22.66    \nframe=  338 fps=1.7 q=29.7 size=    1024KiB time=00:00:02.80 bitrate=2996.1kbits/s speed=0.0138x elapsed=0:03:23.18    \nframe=  339 fps=1.7 q=29.7 size=    1024KiB time=00:00:02.80 bitrate=2987.2kbits/s speed=0.0138x elapsed=0:03:23.69    \nframe=  341 fps=1.7 q=29.7 size=    1024KiB time=00:00:02.82 bitrate=2969.5kbits/s speed=0.0138x elapsed=0:03:24.22    \nframe=  344 fps=1.7 q=29.9 size=    1024KiB time=00:00:02.85 bitrate=2943.5kbits/s speed=0.0139x elapsed=0:03:24.73    \nframe=  345 fps=1.7 q=29.8 size=    1024KiB time=00:00:02.85 bitrate=2934.9kbits/s speed=0.0139x elapsed=0:03:25.26    \nframe=  345 fps=1.7 q=29.8 size=    1024KiB time=00:00:02.85 bitrate=2934.9kbits/s speed=0.0139x elapsed=0:03:25.79    \nframe=  348 fps=1.7 q=28.8 size=    1024KiB time=00:00:02.88 bitrate=2909.5kbits/s speed=0.014x elapsed=0:03:26.31    \nframe=  349 fps=1.7 q=29.9 size=    1024KiB time=00:00:02.89 bitrate=2901.1kbits/s speed=0.014x elapsed=0:03:26.82    \nframe=  352 fps=1.7 q=22.6 size=    1024KiB time=00:00:02.91 bitrate=2876.2kbits/s speed=0.0141x elapsed=0:03:27.34    \nframe=  353 fps=1.7 q=28.7 size=    1024KiB time=00:00:02.92 bitrate=2868.0kbits/s speed=0.0141x elapsed=0:03:27.87    \nframe=  354 fps=1.7 q=29.8 size=    1024KiB time=00:00:02.93 bitrate=2859.9kbits/s speed=0.0141x elapsed=0:03:28.38    \nframe=  356 fps=1.7 q=29.6 size=    1024KiB time=00:00:02.95 bitrate=2843.7kbits/s speed=0.0141x elapsed=0:03:28.90    \nframe=  359 fps=1.7 q=29.7 size=    1280KiB time=00:00:02.97 bitrate=3524.7kbits/s speed=0.0142x elapsed=0:03:29.41    \nframe=  360 fps=1.7 q=29.9 size=    1280KiB time=00:00:02.98 bitrate=3514.9kbits/s speed=0.0142x elapsed=0:03:29.94    \nframe=  362 fps=1.7 q=22.6 size=    1280KiB time=00:00:03.00 bitrate=3495.4kbits/s speed=0.0143x elapsed=0:03:30.46    \nframe=  363 fps=1.7 q=28.8 size=    1280KiB time=00:00:03.00 bitrate=3485.7kbits/s speed=0.0143x elapsed=0:03:30.97    \nframe=  366 fps=1.7 q=29.6 size=    1280KiB time=00:00:03.03 bitrate=3457.0kbits/s speed=0.0143x elapsed=0:03:31.51    \nframe=  367 fps=1.7 q=22.7 size=    1280KiB time=00:00:03.04 bitrate=3447.5kbits/s speed=0.0143x elapsed=0:03:32.03    \nframe=  371 fps=1.7 q=29.8 size=    1280KiB time=00:00:03.07 bitrate=3410.1kbits/s speed=0.0145x elapsed=0:03:32.56    \nframe=  371 fps=1.7 q=29.8 size=    1280KiB time=00:00:03.07 bitrate=3410.1kbits/s speed=0.0144x elapsed=0:03:33.07    \nframe=  373 fps=1.7 q=28.5 size=    1280KiB time=00:00:03.09 bitrate=3391.7kbits/s speed=0.0145x elapsed=0:03:33.59    \nframe=  376 fps=1.8 q=29.8 size=    1280KiB time=00:00:03.11 bitrate=3364.5kbits/s speed=0.0146x elapsed=0:03:34.11    \nframe=  378 fps=1.8 q=28.9 size=    1280KiB time=00:00:03.13 bitrate=3346.6kbits/s speed=0.0146x elapsed=0:03:34.67    \nframe=  380 fps=1.8 q=29.7 size=    1280KiB time=00:00:03.15 bitrate=3328.9kbits/s speed=0.0146x elapsed=0:03:35.18    \nframe=  381 fps=1.8 q=29.7 size=    1280KiB time=00:00:03.15 bitrate=3320.1kbits/s speed=0.0146x elapsed=0:03:35.71    \nframe=  382 fps=1.8 q=22.6 size=    1280KiB time=00:00:03.16 bitrate=3311.4kbits/s speed=0.0146x elapsed=0:03:36.24    \nframe=  383 fps=1.8 q=28.7 size=    1280KiB time=00:00:03.17 bitrate=3302.7kbits/s speed=0.0146x elapsed=0:03:36.78    \nframe=  385 fps=1.8 q=29.7 size=    1280KiB time=00:00:03.19 bitrate=3285.5kbits/s speed=0.0147x elapsed=0:03:37.32    \nframe=  386 fps=1.8 q=29.8 size=    1280KiB time=00:00:03.20 bitrate=3276.9kbits/s speed=0.0147x elapsed=0:03:37.84    \nframe=  387 fps=1.8 q=22.6 size=    1280KiB time=00:00:03.20 bitrate=3268.4kbits/s speed=0.0147x elapsed=0:03:38.35    \nframe=  389 fps=1.8 q=29.8 size=    1280KiB time=00:00:03.22 bitrate=3251.5kbits/s speed=0.0147x elapsed=0:03:38.89    \nframe=  390 fps=1.8 q=29.8 size=    1280KiB time=00:00:03.23 bitrate=3243.1kbits/s speed=0.0147x elapsed=0:03:39.42    \nframe=  392 fps=1.8 q=22.6 size=    1280KiB time=00:00:03.25 bitrate=3226.5kbits/s speed=0.0148x elapsed=0:03:39.94    \nframe=  393 fps=1.8 q=28.8 size=    1280KiB time=00:00:03.25 bitrate=3218.2kbits/s speed=0.0148x elapsed=0:03:40.50    \nframe=  394 fps=1.8 q=29.7 size=    1280KiB time=00:00:03.26 bitrate=3210.0kbits/s speed=0.0148x elapsed=0:03:41.04    \nframe=  396 fps=1.8 q=29.7 size=    1280KiB time=00:00:03.28 bitrate=3193.7kbits/s speed=0.0148x elapsed=0:03:41.56    \nframe=  396 fps=1.8 q=29.7 size=    1280KiB time=00:00:03.28 bitrate=3193.7kbits/s speed=0.0148x elapsed=0:03:42.10    \nframe=  397 fps=1.8 q=22.5 size=    1280KiB time=00:00:03.29 bitrate=3185.7kbits/s speed=0.0148x elapsed=0:03:42.64    \nframe=  397 fps=1.8 q=22.5 size=    1280KiB time=00:00:03.29 bitrate=3185.7kbits/s speed=0.0147x elapsed=0:03:43.17    \nframe=  398 fps=1.8 q=28.7 size=    1280KiB time=00:00:03.30 bitrate=3177.6kbits/s speed=0.0148x elapsed=0:03:43.72    \nframe=  399 fps=1.8 q=29.8 size=    1280KiB time=00:00:03.30 bitrate=3169.6kbits/s speed=0.0148x elapsed=0:03:44.25    \nframe=  399 fps=1.8 q=29.8 size=    1280KiB time=00:00:03.30 bitrate=3169.6kbits/s speed=0.0147x elapsed=0:03:44.79    \nframe=  399 fps=1.8 q=29.8 size=    1280KiB time=00:00:03.30 bitrate=3169.6kbits/s speed=0.0147x elapsed=0:03:45.34    \nframe=  399 fps=1.8 q=29.8 size=    1280KiB time=00:00:03.30 bitrate=3169.6kbits/s speed=0.0146x elapsed=0:03:45.86    \nframe=  400 fps=1.8 q=29.6 size=    1280KiB time=00:00:03.31 bitrate=3161.6kbits/s speed=0.0146x elapsed=0:03:46.40    \nframe=  403 fps=1.8 q=28.8 size=    1280KiB time=00:00:03.34 bitrate=3138.0kbits/s speed=0.0147x elapsed=0:03:46.94    \nframe=  404 fps=1.8 q=29.8 size=    1280KiB time=00:00:03.35 bitrate=3130.2kbits/s speed=0.0147x elapsed=0:03:47.48    \nframe=  404 fps=1.8 q=29.8 size=    1280KiB time=00:00:03.35 bitrate=3130.2kbits/s speed=0.0147x elapsed=0:03:48.00    \nframe=  404 fps=1.8 q=29.8 size=    1280KiB time=00:00:03.35 bitrate=3130.2kbits/s speed=0.0147x elapsed=0:03:48.56    \nframe=  404 fps=1.8 q=29.8 size=    1280KiB time=00:00:03.35 bitrate=3130.2kbits/s speed=0.0146x elapsed=0:03:49.14    \nframe=  404 fps=1.8 q=29.8 size=    1280KiB time=00:00:03.35 bitrate=3130.2kbits/s speed=0.0146x elapsed=0:03:49.68    \nframe=  406 fps=1.8 q=29.8 size=    1280KiB time=00:00:03.36 bitrate=3114.7kbits/s speed=0.0146x elapsed=0:03:50.22    \nframe=  407 fps=1.8 q=22.5 size=    1280KiB time=00:00:03.37 bitrate=3107.0kbits/s speed=0.0146x elapsed=0:03:50.75    \nframe=  408 fps=1.8 q=28.8 size=    1280KiB time=00:00:03.38 bitrate=3099.3kbits/s speed=0.0146x elapsed=0:03:51.31    \nframe=  409 fps=1.8 q=29.8 size=    1280KiB time=00:00:03.39 bitrate=3091.7kbits/s speed=0.0146x elapsed=0:03:51.87    \nframe=  411 fps=1.8 q=29.9 size=    1280KiB time=00:00:03.40 bitrate=3076.6kbits/s speed=0.0147x elapsed=0:03:52.41    \nframe=  413 fps=1.8 q=28.9 size=    1280KiB time=00:00:03.42 bitrate=3061.6kbits/s speed=0.0147x elapsed=0:03:52.95    \nframe=  415 fps=1.8 q=29.8 size=    1280KiB time=00:00:03.44 bitrate=3046.8kbits/s speed=0.0147x elapsed=0:03:53.47    \nframe=  415 fps=1.8 q=29.8 size=    1280KiB time=00:00:03.44 bitrate=3046.8kbits/s speed=0.0147x elapsed=0:03:54.01    \nframe=  416 fps=1.8 q=29.8 size=    1280KiB time=00:00:03.45 bitrate=3039.5kbits/s speed=0.0147x elapsed=0:03:54.53    \nframe=  417 fps=1.8 q=22.5 size=    1280KiB time=00:00:03.45 bitrate=3032.1kbits/s speed=0.0147x elapsed=0:03:55.04    \nframe=  419 fps=1.8 q=29.8 size=    1536KiB time=00:00:03.47 bitrate=3621.1kbits/s speed=0.0147x elapsed=0:03:55.60    \nframe=  421 fps=1.8 q=29.6 size=    1536KiB time=00:00:03.49 bitrate=3603.8kbits/s speed=0.0148x elapsed=0:03:56.16    \nframe=  421 fps=1.8 q=29.6 size=    1536KiB time=00:00:03.49 bitrate=3603.8kbits/s speed=0.0148x elapsed=0:03:56.70    \nframe=  421 fps=1.8 q=29.6 size=    1536KiB time=00:00:03.49 bitrate=3603.8kbits/s speed=0.0147x elapsed=0:03:57.21    \nframe=  422 fps=1.8 q=22.5 size=    1536KiB time=00:00:03.50 bitrate=3595.2kbits/s speed=0.0147x elapsed=0:03:57.78    \nframe=  423 fps=1.8 q=28.8 size=    1536KiB time=00:00:03.50 bitrate=3586.7kbits/s speed=0.0147x elapsed=0:03:58.29    \nframe=  425 fps=1.8 q=29.7 size=    1536KiB time=00:00:03.52 bitrate=3569.7kbits/s speed=0.0148x elapsed=0:03:58.83    \nframe=  426 fps=1.8 q=29.6 size=    1536KiB time=00:00:03.53 bitrate=3561.3kbits/s speed=0.0148x elapsed=0:03:59.37    \nframe=  427 fps=1.8 q=22.5 size=    1536KiB time=00:00:03.54 bitrate=3552.9kbits/s speed=0.0148x elapsed=0:03:59.90    \nframe=  429 fps=1.8 q=29.8 size=    1536KiB time=00:00:03.55 bitrate=3536.3kbits/s speed=0.0148x elapsed=0:04:00.43    \nframe=  430 fps=1.8 q=29.8 size=    1536KiB time=00:00:03.56 bitrate=3528.0kbits/s speed=0.0148x elapsed=0:04:00.95    \nframe=  431 fps=1.8 q=29.9 size=    1536KiB time=00:00:03.57 bitrate=3519.8kbits/s speed=0.0148x elapsed=0:04:01.47    \nframe=  432 fps=1.8 q=22.5 size=    1536KiB time=00:00:03.58 bitrate=3511.6kbits/s speed=0.0148x elapsed=0:04:01.98    \nframe=  433 fps=1.8 q=28.7 size=    1536KiB time=00:00:03.59 bitrate=3503.5kbits/s speed=0.0148x elapsed=0:04:02.51    \nframe=  435 fps=1.8 q=29.7 size=    1536KiB time=00:00:03.60 bitrate=3487.3kbits/s speed=0.0148x elapsed=0:04:03.04    \nframe=  436 fps=1.8 q=29.8 size=    1536KiB time=00:00:03.61 bitrate=3479.2kbits/s speed=0.0148x elapsed=0:04:03.58    \nframe=  438 fps=1.8 q=28.7 size=    1536KiB time=00:00:03.63 bitrate=3463.3kbits/s speed=0.0149x elapsed=0:04:04.13    \nframe=  440 fps=1.8 q=29.7 size=    1536KiB time=00:00:03.65 bitrate=3447.5kbits/s speed=0.0149x elapsed=0:04:04.67    \nframe=  440 fps=1.8 q=29.7 size=    1536KiB time=00:00:03.65 bitrate=3447.5kbits/s speed=0.0149x elapsed=0:04:05.18    \nframe=  441 fps=1.8 q=29.8 size=    1536KiB time=00:00:03.65 bitrate=3439.6kbits/s speed=0.0149x elapsed=0:04:05.69    \nframe=  441 fps=1.8 q=29.8 size=    1536KiB time=00:00:03.65 bitrate=3439.6kbits/s speed=0.0149x elapsed=0:04:06.22    \nframe=  444 fps=1.8 q=29.8 size=    1536KiB time=00:00:03.68 bitrate=3416.3kbits/s speed=0.0149x elapsed=0:04:06.72    \nframe=  445 fps=1.8 q=29.7 size=    1536KiB time=00:00:03.69 bitrate=3408.6kbits/s speed=0.0149x elapsed=0:04:07.24    \nframe=  446 fps=1.8 q=29.7 size=    1536KiB time=00:00:03.70 bitrate=3400.9kbits/s speed=0.0149x elapsed=0:04:07.77    \nframe=  447 fps=1.8 q=22.5 size=    1536KiB time=00:00:03.70 bitrate=3393.2kbits/s speed=0.0149x elapsed=0:04:08.32    \nframe=  448 fps=1.8 q=28.5 size=    1536KiB time=00:00:03.71 bitrate=3385.6kbits/s speed=0.0149x elapsed=0:04:08.84    \nframe=  449 fps=1.8 q=29.8 size=    1536KiB time=00:00:03.72 bitrate=3378.1kbits/s speed=0.0149x elapsed=0:04:09.35    \nframe=  451 fps=1.8 q=29.7 size=    1536KiB time=00:00:03.74 bitrate=3363.0kbits/s speed=0.015x elapsed=0:04:09.87    \nframe=  451 fps=1.8 q=29.7 size=    1536KiB time=00:00:03.74 bitrate=3363.0kbits/s speed=0.0149x elapsed=0:04:10.40    \nframe=  453 fps=1.8 q=28.8 size=    1536KiB time=00:00:03.75 bitrate=3348.1kbits/s speed=0.015x elapsed=0:04:10.92    \nframe=  455 fps=1.8 q=29.8 size=    1536KiB time=00:00:03.77 bitrate=3333.3kbits/s speed=0.015x elapsed=0:04:11.43    \nframe=  456 fps=1.8 q=29.8 size=    1536KiB time=00:00:03.78 bitrate=3326.0kbits/s speed=0.015x elapsed=0:04:11.94    \nframe=  458 fps=1.8 q=28.7 size=    1536KiB time=00:00:03.80 bitrate=3311.4kbits/s speed=0.0151x elapsed=0:04:12.46    \nframe=  459 fps=1.8 q=29.6 size=    1536KiB time=00:00:03.80 bitrate=3304.1kbits/s speed=0.0151x elapsed=0:04:12.98    \nframe=  461 fps=1.8 q=29.6 size=    1536KiB time=00:00:03.82 bitrate=3289.7kbits/s speed=0.0151x elapsed=0:04:13.51    \nframe=  463 fps=1.8 q=28.6 size=    1536KiB time=00:00:03.84 bitrate=3275.5kbits/s speed=0.0151x elapsed=0:04:14.07    \nframe=  464 fps=1.8 q=29.7 size=    1536KiB time=00:00:03.85 bitrate=3268.4kbits/s speed=0.0151x elapsed=0:04:14.58    \nframe=  465 fps=1.8 q=29.7 size=    1536KiB time=00:00:03.85 bitrate=3261.3kbits/s speed=0.0151x elapsed=0:04:15.11    \nframe=  467 fps=1.8 q=22.5 size=    1536KiB time=00:00:03.87 bitrate=3247.3kbits/s speed=0.0152x elapsed=0:04:15.62    \nframe=  468 fps=1.8 q=28.6 size=    1536KiB time=00:00:03.88 bitrate=3240.3kbits/s speed=0.0152x elapsed=0:04:16.14    \nframe=  469 fps=1.8 q=29.7 size=    1536KiB time=00:00:03.89 bitrate=3233.4kbits/s speed=0.0152x elapsed=0:04:16.67    \nframe=  470 fps=1.8 q=29.7 size=    1536KiB time=00:00:03.90 bitrate=3226.5kbits/s speed=0.0152x elapsed=0:04:17.19    \nframe=  472 fps=1.8 q=22.5 size=    1536KiB time=00:00:03.91 bitrate=3212.7kbits/s speed=0.0152x elapsed=0:04:17.69    \nframe=  474 fps=1.8 q=29.7 size=    1536KiB time=00:00:03.93 bitrate=3199.1kbits/s speed=0.0152x elapsed=0:04:18.21    \nframe=  475 fps=1.8 q=29.6 size=    1536KiB time=00:00:03.94 bitrate=3192.4kbits/s speed=0.0152x elapsed=0:04:18.73    \nframe=  476 fps=1.8 q=29.7 size=    1536KiB time=00:00:03.95 bitrate=3185.6kbits/s speed=0.0152x elapsed=0:04:19.27    \nframe=  479 fps=1.8 q=30.7 size=    1792KiB time=00:00:03.97 bitrate=3693.2kbits/s speed=0.0153x elapsed=0:04:19.79    \nframe=  481 fps=1.8 q=30.7 size=    1792KiB time=00:00:03.99 bitrate=3677.8kbits/s speed=0.0153x elapsed=0:04:20.30    \nframe=  484 fps=1.9 q=30.6 size=    1792KiB time=00:00:04.01 bitrate=3654.9kbits/s speed=0.0154x elapsed=0:04:20.84    \nframe=  484 fps=1.9 q=30.6 size=    1792KiB time=00:00:04.01 bitrate=3654.9kbits/s speed=0.0154x elapsed=0:04:21.39    \nframe=  485 fps=1.9 q=30.8 size=    1792KiB time=00:00:04.02 bitrate=3647.3kbits/s speed=0.0154x elapsed=0:04:21.91    \nframe=  489 fps=1.9 q=31.7 size=    1792KiB time=00:00:04.05 bitrate=3617.4kbits/s speed=0.0155x elapsed=0:04:22.44    \nframe=  491 fps=1.9 q=31.7 size=    1792KiB time=00:00:04.07 bitrate=3602.6kbits/s speed=0.0155x elapsed=0:04:22.96    \nframe=  492 fps=1.9 q=22.8 size=    1792KiB time=00:00:04.08 bitrate=3595.2kbits/s speed=0.0155x elapsed=0:04:23.49    \nframe=  492 fps=1.9 q=22.8 size=    1792KiB time=00:00:04.08 bitrate=3595.2kbits/s speed=0.0155x elapsed=0:04:24.03    \nframe=  494 fps=1.9 q=31.7 size=    1792KiB time=00:00:04.10 bitrate=3580.6kbits/s speed=0.0155x elapsed=0:04:24.56    \nframe=  494 fps=1.9 q=31.7 size=    1792KiB time=00:00:04.10 bitrate=3580.6kbits/s speed=0.0155x elapsed=0:04:25.10    \nframe=  494 fps=1.9 q=31.7 size=    1792KiB time=00:00:04.10 bitrate=3580.6kbits/s speed=0.0154x elapsed=0:04:25.62    \nframe=  495 fps=1.9 q=31.7 size=    1792KiB time=00:00:04.10 bitrate=3573.3kbits/s speed=0.0154x elapsed=0:04:26.15    \nframe=  495 fps=1.9 q=31.7 size=    1792KiB time=00:00:04.10 bitrate=3573.3kbits/s speed=0.0154x elapsed=0:04:26.69    \nframe=  496 fps=1.9 q=31.7 size=    1792KiB time=00:00:04.11 bitrate=3566.1kbits/s speed=0.0154x elapsed=0:04:27.21    \nframe=  496 fps=1.9 q=31.7 size=    1792KiB time=00:00:04.11 bitrate=3566.1kbits/s speed=0.0154x elapsed=0:04:27.75    \nframe=  499 fps=1.9 q=31.8 size=    1792KiB time=00:00:04.14 bitrate=3544.6kbits/s speed=0.0154x elapsed=0:04:28.28    \nframe=  500 fps=1.9 q=31.7 size=    1792KiB time=00:00:04.15 bitrate=3537.4kbits/s speed=0.0154x elapsed=0:04:28.80    \nframe=  503 fps=1.9 q=30.9 size=    1792KiB time=00:00:04.17 bitrate=3516.3kbits/s speed=0.0155x elapsed=0:04:29.33    \nframe=  504 fps=1.9 q=31.9 size=    1792KiB time=00:00:04.18 bitrate=3509.3kbits/s speed=0.0155x elapsed=0:04:29.86    \nframe=  505 fps=1.9 q=31.8 size=    1792KiB time=00:00:04.19 bitrate=3502.3kbits/s speed=0.0155x elapsed=0:04:30.39    \nframe=  506 fps=1.9 q=31.9 size=    1792KiB time=00:00:04.20 bitrate=3495.3kbits/s speed=0.0155x elapsed=0:04:30.89    \nframe=  507 fps=1.9 q=23.4 size=    1792KiB time=00:00:04.20 bitrate=3488.4kbits/s speed=0.0155x elapsed=0:04:31.44    \nframe=  509 fps=1.9 q=31.9 size=    1792KiB time=00:00:04.22 bitrate=3474.7kbits/s speed=0.0155x elapsed=0:04:31.97    \nframe=  510 fps=1.9 q=31.9 size=    1792KiB time=00:00:04.23 bitrate=3467.8kbits/s speed=0.0155x elapsed=0:04:32.50    \nframe=  512 fps=1.9 q=23.3 size=    1792KiB time=00:00:04.25 bitrate=3454.2kbits/s speed=0.0156x elapsed=0:04:33.03    \nframe=  514 fps=1.9 q=31.9 size=    1792KiB time=00:00:04.26 bitrate=3440.7kbits/s speed=0.0156x elapsed=0:04:33.56    \nframe=  516 fps=1.9 q=31.8 size=    1792KiB time=00:00:04.28 bitrate=3427.3kbits/s speed=0.0156x elapsed=0:04:34.08    \nframe=  518 fps=1.9 q=30.7 size=    2048KiB time=00:00:04.30 bitrate=3901.8kbits/s speed=0.0157x elapsed=0:04:34.61    \nframe=  519 fps=1.9 q=31.8 size=    2048KiB time=00:00:04.30 bitrate=3894.2kbits/s speed=0.0157x elapsed=0:04:35.12    \nframe=  522 fps=1.9 q=23.4 size=    2048KiB time=00:00:04.33 bitrate=3871.7kbits/s speed=0.0157x elapsed=0:04:35.63    \nframe=  522 fps=1.9 q=23.4 size=    2048KiB time=00:00:04.33 bitrate=3871.7kbits/s speed=0.0157x elapsed=0:04:36.19    \nframe=  523 fps=1.9 q=30.7 size=    2048KiB time=00:00:04.34 bitrate=3864.3kbits/s speed=0.0157x elapsed=0:04:36.73    \nframe=  525 fps=1.9 q=31.8 size=    2048KiB time=00:00:04.35 bitrate=3849.5kbits/s speed=0.0157x elapsed=0:04:37.26    \nframe=  525 fps=1.9 q=31.8 size=    2048KiB time=00:00:04.35 bitrate=3849.5kbits/s speed=0.0157x elapsed=0:04:37.82    \nframe=  526 fps=1.9 q=31.9 size=    2048KiB time=00:00:04.36 bitrate=3842.2kbits/s speed=0.0157x elapsed=0:04:38.34    \nframe=  528 fps=1.9 q=30.7 size=    2048KiB time=00:00:04.38 bitrate=3827.6kbits/s speed=0.0157x elapsed=0:04:38.85    \nframe=  529 fps=1.9 q=31.9 size=    2048KiB time=00:00:04.39 bitrate=3820.3kbits/s speed=0.0157x elapsed=0:04:39.36    \nframe=  530 fps=1.9 q=31.9 size=    2048KiB time=00:00:04.40 bitrate=3813.1kbits/s speed=0.0157x elapsed=0:04:39.90    \nframe=  530 fps=1.9 q=31.9 size=    2048KiB time=00:00:04.40 bitrate=3813.1kbits/s speed=0.0157x elapsed=0:04:40.41    \nframe=  533 fps=1.9 q=30.8 size=    2048KiB time=00:00:04.42 bitrate=3791.5kbits/s speed=0.0157x elapsed=0:04:40.95    \nframe=  534 fps=1.9 q=31.8 size=    2048KiB time=00:00:04.43 bitrate=3784.4kbits/s speed=0.0157x elapsed=0:04:41.48    \nframe=  536 fps=1.9 q=31.9 size=    2048KiB time=00:00:04.45 bitrate=3770.2kbits/s speed=0.0158x elapsed=0:04:42.03    \nframe=  536 fps=1.9 q=31.9 size=    2048KiB time=00:00:04.45 bitrate=3770.2kbits/s speed=0.0157x elapsed=0:04:42.54    \nframe=  538 fps=1.9 q=30.8 size=    2048KiB time=00:00:04.46 bitrate=3756.2kbits/s speed=0.0158x elapsed=0:04:43.07    \nframe=  540 fps=1.9 q=31.8 size=    2048KiB time=00:00:04.48 bitrate=3742.2kbits/s speed=0.0158x elapsed=0:04:43.58    \nframe=  542 fps=1.9 q=23.5 size=    2048KiB time=00:00:04.50 bitrate=3728.3kbits/s speed=0.0158x elapsed=0:04:44.10    \nframe=  543 fps=1.9 q=30.9 size=    2048KiB time=00:00:04.50 bitrate=3721.5kbits/s speed=0.0158x elapsed=0:04:44.63    \nframe=  544 fps=1.9 q=31.8 size=    2048KiB time=00:00:04.51 bitrate=3714.6kbits/s speed=0.0158x elapsed=0:04:45.17    \nframe=  546 fps=1.9 q=31.9 size=    2048KiB time=00:00:04.53 bitrate=3700.9kbits/s speed=0.0159x elapsed=0:04:45.70    \nframe=  546 fps=1.9 q=31.9 size=    2048KiB time=00:00:04.53 bitrate=3700.9kbits/s speed=0.0158x elapsed=0:04:46.22    \nframe=  548 fps=1.9 q=30.9 size=    2048KiB time=00:00:04.55 bitrate=3687.4kbits/s speed=0.0159x elapsed=0:04:46.76    \nframe=  550 fps=1.9 q=31.9 size=    2048KiB time=00:00:04.56 bitrate=3673.9kbits/s speed=0.0159x elapsed=0:04:47.27    \nframe=  552 fps=1.9 q=23.4 size=    2048KiB time=00:00:04.58 bitrate=3660.6kbits/s speed=0.0159x elapsed=0:04:47.79    \nframe=  553 fps=1.9 q=30.8 size=    2048KiB time=00:00:04.59 bitrate=3653.9kbits/s speed=0.0159x elapsed=0:04:48.32    \nframe=  554 fps=1.9 q=31.8 size=    2048KiB time=00:00:04.60 bitrate=3647.3kbits/s speed=0.0159x elapsed=0:04:48.85    \nframe=  556 fps=1.9 q=31.8 size=    2048KiB time=00:00:04.61 bitrate=3634.1kbits/s speed=0.016x elapsed=0:04:49.37    \nframe=  559 fps=1.9 q=31.8 size=    2048KiB time=00:00:04.64 bitrate=3614.6kbits/s speed=0.016x elapsed=0:04:49.89    \nframe=  560 fps=1.9 q=30.9 size=    2048KiB time=00:00:04.65 bitrate=3608.1kbits/s speed=0.016x elapsed=0:04:50.40    \nframe=  561 fps=1.9 q=30.9 size=    2048KiB time=00:00:04.65 bitrate=3601.6kbits/s speed=0.016x elapsed=0:04:50.92    \nframe=  563 fps=1.9 q=29.8 size=    2048KiB time=00:00:04.67 bitrate=3588.8kbits/s speed=0.016x elapsed=0:04:51.48    \nframe=  566 fps=1.9 q=30.8 size=    2048KiB time=00:00:04.70 bitrate=3569.7kbits/s speed=0.0161x elapsed=0:04:52.00    \nframe=  566 fps=1.9 q=30.8 size=    2048KiB time=00:00:04.70 bitrate=3569.7kbits/s speed=0.0161x elapsed=0:04:52.52    \nframe=  568 fps=1.9 q=29.9 size=    2048KiB time=00:00:04.71 bitrate=3557.1kbits/s speed=0.0161x elapsed=0:04:53.04    \nframe=  569 fps=1.9 q=30.9 size=    2048KiB time=00:00:04.72 bitrate=3550.8kbits/s speed=0.0161x elapsed=0:04:53.55    \nframe=  571 fps=1.9 q=30.9 size=    2048KiB time=00:00:04.74 bitrate=3538.3kbits/s speed=0.0161x elapsed=0:04:54.07    \nframe=  573 fps=1.9 q=29.9 size=    2048KiB time=00:00:04.75 bitrate=3525.9kbits/s speed=0.0162x elapsed=0:04:54.58    \nframe=  574 fps=1.9 q=31.0 size=    2048KiB time=00:00:04.76 bitrate=3519.8kbits/s speed=0.0162x elapsed=0:04:55.10    \nframe=  574 fps=1.9 q=31.0 size=    2048KiB time=00:00:04.76 bitrate=3519.8kbits/s speed=0.0161x elapsed=0:04:55.62    \nframe=  577 fps=1.9 q=23.1 size=    2048KiB time=00:00:04.79 bitrate=3501.4kbits/s speed=0.0162x elapsed=0:04:56.13    \nframe=  578 fps=1.9 q=28.4 size=    2048KiB time=00:00:04.80 bitrate=3495.3kbits/s speed=0.0162x elapsed=0:04:56.66    \nframe=  580 fps=2.0 q=30.9 size=    2048KiB time=00:00:04.81 bitrate=3483.2kbits/s speed=0.0162x elapsed=0:04:57.18    \nframe=  581 fps=2.0 q=23.3 size=    2048KiB time=00:00:04.82 bitrate=3477.2kbits/s speed=0.0162x elapsed=0:04:57.70    \nframe=  584 fps=2.0 q=30.9 size=    2048KiB time=00:00:04.85 bitrate=3459.3kbits/s speed=0.0163x elapsed=0:04:58.24    \nframe=  586 fps=2.0 q=23.8 size=    2048KiB time=00:00:04.86 bitrate=3447.4kbits/s speed=0.0163x elapsed=0:04:58.80    \nframe=  587 fps=2.0 q=29.4 size=    2048KiB time=00:00:04.87 bitrate=3441.6kbits/s speed=0.0163x elapsed=0:04:59.34    \nframe=  589 fps=2.0 q=30.9 size=    2048KiB time=00:00:04.89 bitrate=3429.8kbits/s speed=0.0163x elapsed=0:04:59.87    \nframe=  591 fps=2.0 q=24.6 size=    2048KiB time=00:00:04.90 bitrate=3418.2kbits/s speed=0.0163x elapsed=0:05:00.39    \nframe=  594 fps=2.0 q=29.9 size=    2048KiB time=00:00:04.93 bitrate=3400.9kbits/s speed=0.0164x elapsed=0:05:00.91    \nframe=  595 fps=2.0 q=29.8 size=    2048KiB time=00:00:04.94 bitrate=3395.1kbits/s speed=0.0164x elapsed=0:05:01.44    \nframe=  599 fps=2.0 q=29.6 size=    2048KiB time=00:00:04.97 bitrate=3372.4kbits/s speed=0.0165x elapsed=0:05:01.95    \n[mp4 @ 000001587ba69b80] Starting second pass: moving the moov atom to the beginning of the file\n[out#0/mp4 @ 000001587ba69a80] video:2303KiB audio:0KiB subtitle:0KiB other streams:0KiB global headers:2KiB muxing overhead: 0.434950%\nframe=  600 fps=2.0 q=28.7 Lsize=    2313KiB time=00:00:04.98 bitrate=3803.0kbits/s speed=0.0165x elapsed=0:05:02.16    \nx265 [info]: frame I:      3, Avg QP:27.61  kb/s: 94365.12\nx265 [info]: frame P:    118, Avg QP:23.97  kb/s: 15020.25\nx265 [info]: frame B:    479, Avg QP:30.79  kb/s: 431.16  \nx265 [info]: Weighted P-Frames: Y:0.0% UV:0.0%\n\nencoded 600 frames in 302.00s (1.99 fps), 3770.02 kb/s, Avg QP:29.43\n",
  "seconds": 302.35216665267944,
  "probe_out": {}
}